<svg width="238" height="73" viewBox="0 0 238 73" fill="none" xmlns="http://www.w3.org/2000/svg">
<circle cx="170.608" cy="10.3431" r="4.20829" fill="#232526"/>
<path d="M84.3716 24.507C84.4686 25.7041 84.8893 26.7718 85.6334 27.7101C86.3776 28.6484 87.3159 29.4249 88.4483 30.0397C89.5807 30.6544 90.8264 31.253 92.1853 31.8354C93.5442 32.4178 94.8869 33.0325 96.2135 33.6796C97.5724 34.2944 98.8019 34.99 99.9019 35.7665C101.034 36.543 101.94 37.546 102.62 38.7755C103.299 39.9726 103.639 41.3477 103.639 42.9008C103.639 45.9745 102.458 48.4334 100.096 50.2777C97.7665 52.0895 94.7413 52.9955 91.0205 52.9955C87.2673 52.9955 84.0319 52.1866 81.314 50.5689C80.6669 50.1806 80.1169 50.1644 79.6639 50.5203C79.211 50.8762 78.8874 51.3777 78.6933 52.0248L77.7712 42.1242C78.0947 42.9008 78.4345 43.6449 78.7904 44.3567C79.1463 45.0685 79.7125 45.9583 80.489 47.026C81.2655 48.0614 82.0906 48.9511 82.9641 49.6953C83.8701 50.4394 85.0349 51.0865 86.4585 51.6366C87.8821 52.1542 89.4028 52.4131 91.0205 52.4131C93.3177 52.4131 95.1619 51.8792 96.5532 50.8115C97.9445 49.7438 98.6077 48.1908 98.543 46.1524C98.5107 45.02 98.2033 43.9846 97.6209 43.0463C97.0385 42.0757 96.2782 41.2668 95.3399 40.6197C94.4339 39.9403 93.3824 39.277 92.1853 38.6299C90.9882 37.9505 89.7748 37.3519 88.5454 36.8342C87.3159 36.3165 86.1026 35.718 84.9054 35.0385C83.7407 34.3591 82.6729 33.6796 81.7023 33.0002C80.764 32.2884 79.9875 31.4309 79.3728 30.4279C78.7904 29.4249 78.4506 28.3411 78.3536 27.1763C78.2889 25.8821 78.483 24.7011 78.936 23.6334C79.4213 22.5657 80.0684 21.6921 80.8773 21.0127C81.6861 20.3009 82.6244 19.7023 83.6921 19.217C84.7922 18.7317 85.9084 18.3919 87.0409 18.1978C88.1733 17.9713 89.2895 17.8581 90.3896 17.8581C93.3015 17.8581 95.9385 18.6508 98.3004 20.2362C98.721 20.4626 99.0607 20.495 99.3195 20.3332C99.5784 20.1714 99.7725 19.945 99.9019 19.6538L100.048 19.1684L100.63 28.0499C100.339 26.8851 99.9181 25.785 99.3681 24.7497C98.8504 23.7143 98.1871 22.7113 97.3782 21.7407C96.5694 20.7377 95.5664 19.945 94.3692 19.3626C93.1721 18.7478 91.8456 18.4405 90.3896 18.4405C88.7071 18.4405 87.2512 18.9581 86.0217 19.9935C84.8245 20.9965 84.2745 22.501 84.3716 24.507ZM136.162 18.4405C136.098 18.5699 135.92 18.7317 135.629 18.9258C135.337 19.0876 135.062 19.2655 134.803 19.4596C134.545 19.6214 134.302 19.8964 134.075 20.2847C133.849 20.6729 133.736 21.1421 133.736 21.6921V49.1614C133.736 49.8409 133.898 50.4071 134.221 50.8601C134.577 51.2807 134.965 51.6204 135.386 51.8792C135.839 52.1057 136.098 52.2837 136.162 52.4131H125.243C125.34 52.2837 125.599 52.1057 126.019 51.8792C126.472 51.6204 126.86 51.2807 127.184 50.8601C127.507 50.4071 127.669 49.8409 127.669 49.1614V36.0092H113.935V49.1614C113.935 49.8409 114.096 50.4071 114.42 50.8601C114.743 51.2807 115.116 51.6204 115.536 51.8792C115.989 52.1057 116.264 52.2837 116.361 52.4131H105.441C105.538 52.2837 105.797 52.1057 106.218 51.8792C106.671 51.6204 107.059 51.2807 107.383 50.8601C107.706 50.4071 107.868 49.8409 107.868 49.1614V21.6921C107.868 21.1421 107.755 20.6729 107.528 20.2847C107.334 19.8964 107.092 19.6214 106.8 19.4596C106.541 19.2655 106.266 19.0876 105.975 18.9258C105.716 18.7317 105.538 18.5699 105.441 18.4405H116.361C116.264 18.5699 115.989 18.764 115.536 19.0228C115.116 19.2493 114.743 19.5891 114.42 20.042C114.096 20.4626 113.935 21.0127 113.935 21.6921V35.4268H127.669V21.6921C127.669 21.2392 127.605 20.8509 127.475 20.5274C127.346 20.2038 127.168 19.945 126.941 19.7508C126.747 19.5244 126.537 19.3464 126.31 19.217C126.084 19.0876 125.874 18.9581 125.679 18.8287C125.485 18.6669 125.34 18.5375 125.243 18.4405H136.162ZM173.87 39.455C173.87 40.1344 174.032 40.7006 174.355 41.1536C174.679 41.5742 175.051 41.9139 175.472 42.1728C175.925 42.3993 176.2 42.5772 176.297 42.7066H165.377C165.442 42.5772 165.684 42.3993 166.105 42.1728C166.558 41.9139 166.946 41.5742 167.27 41.1536C167.626 40.7006 167.804 40.1344 167.804 39.455V21.6921C167.804 21.2392 167.723 20.8509 167.561 20.5274C167.431 20.2038 167.254 19.945 167.027 19.7508C166.833 19.5244 166.623 19.3464 166.396 19.217C166.202 19.0876 165.992 18.9581 165.765 18.8287C165.571 18.6669 165.442 18.5375 165.377 18.4405H176.297C176.2 18.5699 175.925 18.764 175.472 19.0228C175.051 19.2493 174.679 19.5891 174.355 20.042C174.032 20.4626 173.87 21.0127 173.87 21.6921V39.455ZM169.26 49.1614C170.165 49.8409 171.185 50.4071 172.317 50.8601C173.449 51.2807 174.355 51.6042 175.035 51.8307C175.747 52.0572 176.167 52.2513 176.297 52.4131H165.086L150.575 36.9798C150.251 37.0122 149.927 37.0283 149.604 37.0283H146.352V49.1614C146.352 49.8409 146.514 50.4071 146.838 50.8601C147.161 51.2807 147.533 51.6204 147.954 51.8792C148.407 52.1057 148.682 52.2837 148.779 52.4131H137.859C137.956 52.2837 138.215 52.1057 138.636 51.8792C139.089 51.6204 139.477 51.2807 139.8 50.8601C140.124 50.4071 140.286 49.8409 140.286 49.1614V21.6921C140.286 21.0127 140.124 20.4626 139.8 20.042C139.477 19.5891 139.089 19.2493 138.636 19.0228C138.215 18.764 137.956 18.5699 137.859 18.4405H148.779C153.341 18.4405 156.771 19.2817 159.068 20.9641C161.365 22.6466 162.514 25.0409 162.514 28.1469C162.514 30.4118 161.591 32.3531 159.747 33.9708C157.903 35.5562 155.234 36.5268 151.739 36.8827L169.26 49.1614ZM148.779 36.446C151.432 36.446 153.309 35.815 154.409 34.5532C155.509 33.2914 156.059 31.1559 156.059 28.1469C156.059 25.0409 155.493 22.7437 154.36 21.2553C153.228 19.767 151.367 19.0228 148.779 19.0228H146.352V36.446H148.779ZM202.808 18.4405H208.292C208.195 18.5699 208.001 18.7317 207.71 18.9258C207.451 19.0876 207.176 19.2655 206.885 19.4596C206.626 19.6214 206.383 19.8964 206.157 20.2847C205.962 20.6729 205.865 21.1421 205.865 21.6921V52.4131H205.234L180.968 21.4009V49.1614C180.968 49.8409 181.13 50.4071 181.454 50.8601C181.81 51.2807 182.198 51.6204 182.618 51.8792C183.071 52.1057 183.33 52.2837 183.395 52.4131H177.959C178.056 52.2837 178.315 52.1057 178.736 51.8792C179.189 51.6204 179.577 51.2807 179.901 50.8601C180.224 50.4071 180.386 49.8409 180.386 49.1614V21.6921C180.386 21.0127 180.224 20.4626 179.901 20.042C179.577 19.5891 179.189 19.2493 178.736 19.0228C178.315 18.764 178.056 18.5699 177.959 18.4405H185.433L205.234 43.1434V21.6921C205.234 21.1421 205.121 20.6729 204.895 20.2847C204.701 19.8964 204.474 19.6214 204.215 19.4596C203.956 19.2655 203.681 19.0876 203.39 18.9258C203.099 18.7317 202.905 18.5699 202.808 18.4405ZM223.64 51.8307C224.869 51.8307 225.986 51.6527 226.989 51.2968C228.024 50.9086 228.881 50.4718 229.561 49.9865C230.24 49.4688 230.887 48.8055 231.502 47.9966C232.149 47.1554 232.651 46.4274 233.007 45.8127C233.363 45.1979 233.751 44.4376 234.172 43.5317L232.133 52.4131H209.905C210.002 52.2837 210.261 52.1057 210.682 51.8792C211.135 51.6204 211.523 51.2807 211.847 50.8601C212.17 50.4071 212.332 49.8409 212.332 49.1614V21.6921C212.332 21.1421 212.219 20.6729 211.992 20.2847C211.798 19.8964 211.555 19.6214 211.264 19.4596C211.005 19.2655 210.73 19.0876 210.439 18.9258C210.18 18.7317 210.002 18.5699 209.905 18.4405H231.357L232.958 26.1086C232.893 26.0115 232.796 25.8497 232.667 25.6232C232.117 24.685 231.68 23.9893 231.357 23.5364C231.065 23.051 230.612 22.4686 229.998 21.7892C229.383 21.0774 228.784 20.5759 228.202 20.2847C227.62 19.9611 226.859 19.6861 225.921 19.4596C225.015 19.2008 223.996 19.0714 222.863 19.0714H218.399V34.4076H223.689C224.336 34.4076 224.869 34.1488 225.29 33.6311C225.743 33.1134 226.083 32.5148 226.309 31.8354C226.568 31.1236 226.762 30.703 226.892 30.5735V38.8726C226.762 38.7431 226.6 38.452 226.406 37.999C226.245 37.5137 226.067 37.0769 225.872 36.6886C225.711 36.268 225.436 35.8959 225.047 35.5724C224.659 35.2165 224.19 35.0385 223.64 35.0385H218.399V51.8307H223.64Z" fill="#232526"/>
<path d="M49.2141 36.0449C51.3521 36.1032 54.424 37.6183 55.7916 41.8822C55.8919 42.1949 56.1776 42.4083 56.5058 42.4216C57.7139 42.4707 60.3643 42.8554 60.5619 45.5722" stroke="#232526" stroke-width="0.606833" stroke-linecap="round"/>
<path d="M4.30862 38.412C4.63227 37.0972 5.84998 34.7831 8.13167 36.0453C8.13167 36.2274 7.58552 29.4308 13.8966 30.7052" stroke="#232526" stroke-width="0.606833" stroke-linecap="round"/>
<path d="M5.88638 49.6383C6.39208 48.2021 7.85252 45.706 9.64875 47.2109C9.64875 47.2716 8.98123 40.9606 15.5957 41.8101" stroke="#232526" stroke-width="0.606833" stroke-linecap="round"/>
<path d="M46.5441 22.21C49.1737 22.5538 54.3358 24.5281 53.9474 29.674C53.8261 29.7347 58.3166 28.339 59.591 32.4654" stroke="#232526" stroke-width="0.606833" stroke-linecap="round"/>
<path d="M31.434 7.15821C22.9738 7.6838 14.1837 11.4853 8.48017 17.7559C2.77663 24.0266 -0.259038 32.2729 0.0173447 40.745C0.293727 49.217 3.86041 57.2479 9.96052 63.1335C16.0606 69.0191 24.214 72.2962 32.6905 72.2692C41.167 72.2423 49.2994 68.9135 55.362 62.9893C61.4246 57.065 64.9401 49.0116 65.1627 40.538C65.3852 32.0643 62.2972 23.8375 56.5539 17.6032C50.8107 11.3689 42.264 7.63001 33.8006 7.1582L34.2865 9.19547C42.2168 9.63756 49.6628 13.1523 55.0443 18.9939C60.4258 24.8356 63.3193 32.5442 63.1108 40.4841C62.9022 48.4239 59.6081 55.9701 53.9274 61.5212C48.2467 67.0723 40.6266 70.1914 32.684 70.2166C24.7414 70.2418 17.1016 67.1712 11.3857 61.6564C5.66988 56.1415 2.32787 48.6164 2.06889 40.678C1.80992 32.7397 4.65437 25.0128 9.99864 19.1371C15.3429 13.2614 22.7664 9.69937 30.6937 9.20689L31.434 7.15821Z" fill="#232526"/>
<path d="M16.2631 51.6408L7.70673 57.4664L7.94946 58.5587L9.46654 60.3185L15.6562 65.598L23.2417 69.7244L29.5527 71.3022L37.1381 70.9988L43.5099 69.6031L50.4278 66.0227L57.103 59.4083L57.5884 57.2843L49.3962 51.3981L47.9398 52.369L41.8108 47.575V45.6331H40.7185V41.3246L41.3253 40.111L40.5971 40.2323L39.2621 29.8555L38.1698 39.8682L37.1381 39.5041V33.1324C36.2643 33.2295 33.7399 31.2714 32.5869 30.2803C31.616 31.6396 29.2291 32.748 28.157 33.1324V39.5041L27.2468 39.9896L25.9724 29.8555L24.7587 40.111H23.9699L24.5767 41.3246V45.6331H23.4844V47.7571L17.4767 52.4297L16.2631 51.6408Z" fill="#232526"/>
<rect x="32.2834" width="0.7282" height="6.31107" fill="#232526"/>
<rect x="30.3418" y="1.94141" width="4.61193" height="0.849567" fill="#232526"/>
<path d="M27.1254 47.3932V70.0281H28.2784V44.0557H27.7322V47.3932H27.1254Z" fill="#ECF2FF"/>
<path d="M38.291 47.3932V70.0281H37.1381V44.0557H37.6842V47.3932H38.291Z" fill="#ECF2FF"/>
<path d="M32.1621 49.6992V64.8094H33.0116V49.6992C33.0116 49.4646 32.8215 49.2744 32.5869 49.2744C32.3523 49.2744 32.1621 49.4646 32.1621 49.6992Z" fill="#ECF2FF"/>
<path d="M24.3341 68.2074C24.3341 68.3079 24.4156 68.3894 24.5162 68.3894C24.6167 68.3894 24.6982 68.3079 24.6982 68.2074H24.3341ZM24.3341 47.6357V68.2074H24.6982V47.6357H24.3341Z" fill="#ECF2FF"/>
<path d="M40.7186 68.6934C40.7186 68.794 40.8001 68.8755 40.9006 68.8755C41.0012 68.8755 41.0827 68.794 41.0827 68.6934L40.7186 68.6934ZM40.7186 47.8184L40.7186 68.6934L41.0827 68.6934L41.0827 47.8184L40.7186 47.8184Z" fill="#ECF2FF"/>
<path d="M8.98109 58.3772L16.0204 53.2191L17.4161 54.2507L23.4844 49.1533" stroke="#ECF2FF" stroke-width="0.485467"/>
<path d="M56.3141 58.2561L49.2748 53.098L47.8791 54.1296L41.8107 49.0322" stroke="#ECF2FF" stroke-width="0.485467"/>
<path d="M29.4316 35.0134V39.0185H30.0384V35.013C30.0384 34.8455 29.9026 34.71 29.735 34.71C29.5674 34.71 29.4316 34.8458 29.4316 35.0134Z" fill="#ECF2FF"/>
<path d="M35.3176 35.0134V39.0185H35.9244V35.013C35.9244 34.8455 35.7886 34.71 35.621 34.71C35.4535 34.71 35.3176 34.8458 35.3176 35.0134Z" fill="#ECF2FF"/>
<path d="M27.7322 32.4043V32.8897C29.3342 32.8897 31.6766 30.786 32.6475 29.7342C33.8126 31.3848 36.4504 32.5256 37.6236 32.8897V32.4043L36.4099 32.1615L32.5868 6.7959L29.0065 32.1615L27.7322 32.4043Z" fill="#232526"/>
</svg>
