<svg width="43" height="59" viewBox="0 0 43 59" fill="none" xmlns="http://www.w3.org/2000/svg">
<path d="M28.2878 51.3732C28.2878 52.3386 28.7384 53.111 29.6395 53.6903C30.5405 54.2052 31.8278 54.5592 33.5013 54.7523C35.2391 54.9454 37.2987 55.0419 39.6802 55.0419H42.7696V59.0003H1.73782V55.0419H5.79273C8.04546 55.0419 9.97636 54.9454 11.5855 54.7523C13.1945 54.5592 14.4175 54.2052 15.2542 53.6903C16.0909 53.111 16.5093 52.3386 16.5093 51.3732V6.47956L17.9575 5.5141C17.5069 6.80137 16.7024 8.02428 15.5438 9.18283C14.3853 10.3414 13.0015 11.339 11.3924 12.1757C9.78327 13.0125 8.01327 13.6883 6.08237 14.2032C4.15146 14.6537 2.124 14.879 0 14.879V8.02428C2.57455 8.02428 4.89164 7.86338 6.95127 7.54155C9.07527 7.21974 10.974 6.73701 12.6475 6.09337C14.3209 5.44974 15.8013 4.64519 17.0885 3.67974C18.3758 2.71428 19.47 1.55574 20.3711 0.204102H28.2878V51.3732Z" fill="#FFE6E0"/>
</svg>
