<svg width="24" height="25" viewBox="0 0 24 25" fill="none" xmlns="http://www.w3.org/2000/svg">
<path d="M15.9999 7.26958C15.9999 6.71729 16.4477 6.26958 16.9999 6.26958C17.5522 6.26958 17.9999 6.71729 17.9999 7.26958C17.9999 7.82186 17.5522 8.26958 16.9999 8.26958C16.4477 8.26958 15.9999 7.82186 15.9999 7.26958Z" fill="#C0304F"/>
<path fill-rule="evenodd" clip-rule="evenodd" d="M11.9999 7.51958C9.37659 7.51958 7.24994 9.64622 7.24994 12.2696C7.24994 14.8929 9.37659 17.0196 11.9999 17.0196C14.6233 17.0196 16.7499 14.8929 16.7499 12.2696C16.7499 9.64622 14.6233 7.51958 11.9999 7.51958ZM8.74994 12.2696C8.74994 10.4747 10.205 9.01958 11.9999 9.01958C13.7949 9.01958 15.2499 10.4747 15.2499 12.2696C15.2499 14.0645 13.7949 15.5196 11.9999 15.5196C10.205 15.5196 8.74994 14.0645 8.74994 12.2696Z" fill="#C0304F"/>
<path fill-rule="evenodd" clip-rule="evenodd" d="M17.2582 3.10259C13.7916 2.71515 10.2083 2.71515 6.74171 3.10259C4.72965 3.32747 3.10532 4.91248 2.86876 6.93501C2.45423 10.4793 2.45423 14.0598 2.86876 17.6041C3.10532 19.6267 4.72965 21.2117 6.74171 21.4366C10.2083 21.824 13.7916 21.824 17.2582 21.4366C19.2702 21.2117 20.8946 19.6267 21.1311 17.6041C21.5457 14.0598 21.5457 10.4793 21.1311 6.93501C20.8946 4.91248 19.2703 3.32747 17.2582 3.10259ZM6.90832 4.59331C10.2642 4.21825 13.7357 4.21825 17.0916 4.59331C18.4217 4.74197 19.4872 5.79158 19.6413 7.10926C20.0423 10.5378 20.0423 14.0014 19.6413 17.4299C19.4872 18.7476 18.4217 19.7972 17.0916 19.9458C13.7357 20.3209 10.2642 20.3209 6.90832 19.9458C5.57821 19.7972 4.51272 18.7476 4.35861 17.4299C3.95761 14.0014 3.95761 10.5378 4.35861 7.10926C4.51272 5.79158 5.57821 4.74197 6.90832 4.59331Z" fill="#C0304F"/>
</svg>
