<svg width="24" height="25" viewBox="0 0 24 25" fill="none" xmlns="http://www.w3.org/2000/svg">
<path fill-rule="evenodd" clip-rule="evenodd" d="M15.0214 3.61293C15.5298 3.52585 16.0991 3.49677 16.6349 3.58742C17.5917 3.7493 18.4756 4.19403 19.1742 4.86079C19.6309 4.87112 20.0797 4.78114 20.4769 4.65288C20.813 4.54433 21.0969 4.41326 21.2959 4.30962C21.3948 4.25809 21.4712 4.21413 21.5209 4.18437C21.5457 4.16952 21.5637 4.15827 21.5744 4.15148L21.5839 4.14542C21.8807 3.94769 22.276 3.98617 22.5288 4.23768C22.7818 4.48924 22.8225 4.88416 22.6263 5.18207C22.4185 5.49736 22.1302 6.05943 21.8071 6.68919C21.7563 6.78821 21.7047 6.8889 21.6523 6.99057C21.4671 7.35054 21.2771 7.71435 21.1 8.02648C20.9888 8.22247 20.8699 8.42144 20.75 8.59339V8.86716C20.7576 9.87279 20.6422 10.8732 20.4082 11.8464C20.2609 12.4587 20.0666 13.0603 19.8264 13.6457C19.2039 15.1624 18.2855 16.5398 17.1248 17.6976C15.9641 18.8553 14.5843 19.7702 13.066 20.3887C11.5491 21.0067 9.92438 21.3165 8.28653 21.3001C5.91222 21.3021 3.58785 20.6181 1.59313 19.3301C1.29933 19.1404 1.17563 18.7729 1.29497 18.4441C1.41431 18.1154 1.745 17.9128 2.09207 17.9557C2.39243 17.9929 2.69484 18.0111 2.99749 18.0101C4.08494 18.007 5.15168 17.7667 6.12554 17.3141C5.816 17.1732 5.52046 16.9994 5.24431 16.7947C4.43259 16.1928 3.82868 15.3528 3.51661 14.3917C3.43552 14.1419 3.49096 13.8679 3.66277 13.6693C3.66585 13.6658 3.66896 13.6623 3.67209 13.6588C3.48856 13.4951 3.31683 13.3169 3.15874 13.1253C2.44742 12.2631 2.05574 11.1817 2.04996 10.0639L2.04994 10.0601L2.04995 10.0101C2.04995 9.74419 2.19071 9.4982 2.41991 9.36348C2.47801 9.32933 2.53959 9.30362 2.60294 9.28638C2.26461 8.6113 2.08867 7.86585 2.08995 7.10959C2.08955 6.25283 2.31335 5.41086 2.73911 4.66736C2.86202 4.45272 3.08285 4.31248 3.32938 4.29251C3.57591 4.27253 3.81644 4.37538 3.9723 4.56743C4.93485 5.75344 6.13614 6.7237 7.49813 7.41517C8.19826 7.77062 8.93281 8.04832 9.68861 8.24475C10.1123 8.35488 10.5428 8.43947 10.9775 8.4979C10.9584 7.77464 11.1012 7.05177 11.4009 6.38384C11.8406 5.40401 12.5931 4.59784 13.5403 4.09174C13.9415 3.87741 14.474 3.7067 15.0214 3.61293ZM3.74323 11.1604C3.87287 11.5253 4.06574 11.8676 4.3158 12.1707C4.80712 12.7663 5.48907 13.1738 6.24628 13.3245C6.58357 13.3916 6.83201 13.6795 6.84903 14.0229C6.86606 14.3664 6.64731 14.6774 6.31831 14.7776C6.04581 14.8605 5.76664 14.9183 5.48428 14.9504C5.67086 15.1909 5.89034 15.4063 6.13775 15.5898C6.69894 16.0059 7.37588 16.2367 8.07439 16.2502C8.39131 16.2563 8.67017 16.461 8.771 16.7615C8.87183 17.062 8.77284 17.3935 8.52373 17.5895C7.47457 18.415 6.26137 18.9907 4.97582 19.2845C6.0413 19.6258 7.15875 19.8014 8.28904 19.8001L8.29774 19.8C9.7378 19.815 11.1664 19.5429 12.5001 18.9996C13.8338 18.4562 15.0459 17.6526 16.0655 16.6355C17.0851 15.6185 17.8919 14.4085 18.4387 13.0762C18.6497 12.562 18.8204 12.0335 18.9497 11.4956C19.1556 10.6399 19.2569 9.76019 19.25 8.87592L19.25 8.87006V8.34006C19.25 8.1582 19.316 7.98254 19.4359 7.84577C19.5051 7.76673 19.6263 7.58417 19.7953 7.28627C19.956 7.00315 20.1338 6.66324 20.3187 6.30406C20.3299 6.28234 20.3411 6.2605 20.3523 6.23856C19.8728 6.34271 19.3292 6.3973 18.7594 6.33571C18.5789 6.31621 18.4116 6.23192 18.2886 6.09848C17.7857 5.55315 17.1161 5.19014 16.3847 5.0664C16.0601 5.01149 15.6678 5.02406 15.2747 5.0914C14.8475 5.16456 14.4758 5.29257 14.2472 5.41475C13.5929 5.76432 13.0732 6.32116 12.7695 6.99795C12.4658 7.67473 12.3953 8.43318 12.5691 9.15434C12.6245 9.38425 12.5682 9.62683 12.4172 9.80886C12.2663 9.99089 12.0383 10.091 11.8021 10.0791C10.9586 10.0364 10.1242 9.90779 9.31129 9.69652C8.45139 9.47303 7.61566 9.15708 6.81909 8.75267C5.64631 8.15726 4.57826 7.38016 3.65342 6.45247C3.61123 6.66809 3.58981 6.88811 3.58995 7.10956L3.58995 7.11148C3.58891 7.6622 3.72406 8.20463 3.98337 8.69048C4.24268 9.17633 4.6181 9.59052 5.07621 9.89617C5.35423 10.0817 5.47596 10.4288 5.37471 10.7473C5.27345 11.0658 4.97366 11.2789 4.63955 11.2698C4.33696 11.2615 4.0369 11.2247 3.74323 11.1604Z" fill="#C0304F"/>
</svg>
