<svg width="40" height="13" viewBox="0 0 40 13" fill="none" xmlns="http://www.w3.org/2000/svg">
<path d="M6.66703 0C8.49507 0.00649902 10.3821 0.435434 12.3215 1.29331L12.4132 1.3323L12.446 1.42329V1.42978C12.6032 1.90421 12.7408 2.37864 12.8522 2.85307C12.9636 3.3275 13.0553 3.80193 13.1209 4.27636C13.2126 4.90026 13.265 5.51767 13.2781 6.14157V6.86946C13.2388 8.44223 12.9636 10.015 12.446 11.5878L12.4132 11.6787L12.3215 11.7177C10.4869 12.5236 8.64577 12.9201 6.81117 12.9201C6.76531 12.9201 6.71944 12.9201 6.66703 12.9201V12.4781C6.71944 12.4781 6.76531 12.4781 6.81117 12.4781C8.55404 12.4781 10.3034 12.1077 12.0529 11.3538C12.8129 9.01414 13.0226 6.67449 12.6819 4.33485C12.6163 3.87992 12.5246 3.41199 12.4132 2.95056C12.3149 2.52162 12.1905 2.08619 12.0529 1.65725C10.1986 0.851372 8.40334 0.448432 6.66703 0.441933V0ZM1.28774 1.2998C3.0044 0.428935 4.78657 0 6.62771 0C6.64082 0 6.65392 0 6.66703 0V0.441933C6.65392 0.441933 6.64082 0.441933 6.62771 0.441933C4.8783 0.441933 3.19441 0.844873 1.56293 1.65725C0.90117 3.21702 0.5277 4.80278 0.508043 6.42103C0.481835 8.02629 0.815993 9.67054 1.55638 11.3473C3.25993 12.0817 4.96348 12.4586 6.66703 12.4781V12.9201C4.8783 12.9006 3.08958 12.5041 1.30085 11.7177L1.18291 11.6073C0.422866 9.91751 0.0690521 8.25376 0.0625 6.6225V6.50552C0.0625 6.47302 0.0625 6.44703 0.0625 6.41453C0.0821563 4.71829 0.481835 3.04804 1.18291 1.41029L1.28774 1.2998Z" fill="#003399"/>
<path fill-rule="evenodd" clip-rule="evenodd" d="M6.7851 10.0668C6.69337 8.82547 6.75234 7.53217 6.37887 6.34934C6.03161 5.24451 4.71464 4.61411 4.68843 3.39879C4.66222 2.44993 5.3895 1.3516 6.75234 1.3516C8.03001 1.3451 8.82281 2.26796 8.91454 3.2948C9.02593 4.48413 7.57136 5.2835 7.19133 6.41433C6.79821 7.57116 6.90959 8.85147 6.7851 10.0668Z" fill="#003399"/>
<path fill-rule="evenodd" clip-rule="evenodd" d="M7.2895 9.76784C7.23708 8.68901 7.23708 7.65566 7.53848 6.7393C7.87263 5.69946 8.56716 4.82209 9.6286 4.53613C10.3559 4.34116 11.4239 5.18604 11.2535 6.05041C11.1094 6.7458 10.4083 7.56468 9.28134 7.65566C8.75717 7.70116 8.5344 8.11709 8.20679 8.35756C9.67447 8.21458 10.6245 7.64267 11.2863 7.04476C11.3846 7.55168 11.4501 8.40305 11.0504 8.69551C10.2642 9.24792 9.53687 8.79949 8.61302 9.05945C8.09541 9.20893 7.77435 9.53388 7.2895 9.76784Z" fill="#003399"/>
<path fill-rule="evenodd" clip-rule="evenodd" d="M6.28697 9.76784C6.34594 8.68901 6.33939 7.65566 6.04454 6.7393C5.71038 5.69946 5.01586 4.82209 3.95442 4.53613C3.22714 4.34116 2.15259 5.18604 2.3295 6.05041C2.47364 6.7458 3.17472 7.56468 4.30168 7.65566C4.8193 7.70116 5.04862 8.11709 5.37623 8.35756C3.902 8.21458 2.9585 7.64267 2.29673 7.04476C2.19845 7.55168 2.13293 8.40305 2.53261 8.69551C3.31886 9.24792 4.04615 8.79949 4.97 9.05945C5.48761 9.20893 5.80211 9.53388 6.28697 9.76784Z" fill="#003399"/>
<path fill-rule="evenodd" clip-rule="evenodd" d="M9.77923 11.3731V11.1977L9.91027 11.1652L9.77923 10.9702V10.6453L10.3689 11.4576L10.1593 11.5096L10.0151 11.3082L9.77923 11.3731ZM9.77923 10.6453V10.9702L9.6875 10.8402L9.64819 11.2302L9.77923 11.1977V11.3731L9.62853 11.4056L9.60232 11.6461L9.39265 11.6981L9.53025 10.6388L9.73992 10.5868L9.77923 10.6453ZM7.8267 11.9386V11.7696H7.87256C7.94464 11.7631 7.9905 11.7566 8.01016 11.7501C8.03637 11.7436 8.06258 11.7241 8.07568 11.7046C8.09534 11.6786 8.10189 11.6526 8.10189 11.6201C8.09534 11.5876 8.08878 11.5616 8.06913 11.5421C8.05602 11.5226 8.02981 11.5096 8.00361 11.5031C7.9774 11.4966 7.91843 11.4966 7.8267 11.5031V11.3342C7.87912 11.3342 7.91188 11.3277 7.92498 11.3277C7.95774 11.3212 7.98395 11.3017 8.00361 11.2822C8.02326 11.2627 8.02982 11.2367 8.02326 11.2042C8.02326 11.1717 8.01016 11.1457 7.9905 11.1327C7.9774 11.1132 7.95119 11.1002 7.91188 11.1002C7.89877 11.1002 7.87256 11.1002 7.8267 11.1067V10.9377C7.89877 10.9312 7.95119 10.9312 7.98395 10.9377C8.02326 10.9377 8.06258 10.9507 8.09534 10.9702C8.1281 10.9832 8.1543 11.0092 8.18051 11.0417C8.20017 11.0742 8.21327 11.1132 8.21983 11.1587C8.22638 11.2042 8.21327 11.2497 8.19362 11.2887C8.17396 11.3277 8.1412 11.3601 8.09534 11.3861C8.16086 11.3991 8.21327 11.4251 8.24603 11.4641C8.28535 11.5031 8.305 11.5486 8.31156 11.6071C8.31156 11.6526 8.305 11.6981 8.2919 11.7436C8.27224 11.7891 8.24603 11.8216 8.21327 11.8541C8.17396 11.8801 8.13465 11.8996 8.08223 11.9126C8.04947 11.9191 7.96429 11.9256 7.8398 11.9386H7.8267ZM9.06505 11.3926L9.26816 11.4186C9.25506 11.5291 9.2223 11.6201 9.16333 11.6851C9.10436 11.7436 9.01918 11.7891 8.91435 11.8086C8.78331 11.8281 8.66537 11.8021 8.56709 11.7306C8.46225 11.6526 8.40328 11.5421 8.37052 11.3861C8.34432 11.2237 8.36397 11.0872 8.43605 10.9832C8.50157 10.8792 8.6064 10.8142 8.74399 10.7882C8.86848 10.7687 8.96677 10.7882 9.0585 10.8467C9.11091 10.8792 9.15678 10.9312 9.18954 11.0092L8.99953 11.0872C8.97987 11.0417 8.94711 11.0027 8.9078 10.9832C8.86193 10.9572 8.81607 10.9507 8.76365 10.9572C8.69158 10.9702 8.63916 11.0092 8.59985 11.0677C8.56054 11.1327 8.55398 11.2172 8.57364 11.3342C8.59985 11.4576 8.63916 11.5421 8.69158 11.5876C8.74399 11.6331 8.80952 11.6526 8.88159 11.6396C8.93401 11.6266 8.97332 11.6006 9.00608 11.5616C9.03884 11.5226 9.0585 11.4641 9.06505 11.3926ZM7.8267 10.9377V11.1067C7.80049 11.1067 7.77428 11.1132 7.74152 11.1132L7.62358 11.1262L7.64324 11.3537L7.78083 11.3407C7.79394 11.3407 7.8136 11.3407 7.8267 11.3342V11.5031C7.8267 11.5031 7.8267 11.5031 7.82015 11.5031L7.6629 11.5161L7.68255 11.7826L7.8267 11.7696V11.9386L7.49909 11.9711L7.40736 10.9767L7.80704 10.9442C7.81359 10.9377 7.82015 10.9377 7.8267 10.9377ZM6.56214 11.5941V11.4251C6.60801 11.4251 6.63422 11.4186 6.65387 11.4121C6.68008 11.4056 6.69974 11.3861 6.71939 11.3666C6.7325 11.3407 6.73905 11.3147 6.73905 11.2887C6.7456 11.2497 6.7325 11.2237 6.71284 11.1977C6.69318 11.1717 6.66698 11.1587 6.63422 11.1522C6.61456 11.1522 6.5949 11.1457 6.56214 11.1457V10.9767C6.66042 10.9767 6.71939 10.9832 6.75215 10.9962C6.81112 11.0092 6.85699 11.0417 6.8963 11.0937C6.93561 11.1457 6.95527 11.2107 6.94872 11.2887C6.94872 11.3472 6.93561 11.3991 6.91596 11.4446C6.88975 11.4836 6.86354 11.5161 6.83078 11.5421C6.79147 11.5616 6.75871 11.5746 6.71939 11.5876C6.68008 11.5941 6.62766 11.5941 6.56214 11.5941ZM6.56214 10.9767V11.1457C6.54249 11.1457 6.51628 11.1457 6.48352 11.1457L6.38524 11.1392V11.4251H6.49007C6.51628 11.4251 6.54249 11.4251 6.56214 11.4251V11.5941C6.54904 11.5941 6.52938 11.5941 6.50973 11.5941H6.37868L6.37213 11.9711L6.16902 11.9646L6.18867 10.9702L6.50973 10.9767C6.52938 10.9767 6.54904 10.9767 6.56214 10.9767ZM4.66858 11.4966V11.1912C4.72755 11.2042 4.76686 11.2042 4.78652 11.2042C4.81273 11.1977 4.83239 11.1912 4.85204 11.1717C4.86515 11.1522 4.87825 11.1327 4.8848 11.1002C4.89135 11.0677 4.8848 11.0417 4.8717 11.0157C4.85859 10.9897 4.83239 10.9767 4.79963 10.9637C4.78652 10.9572 4.74066 10.9507 4.66858 10.9377V10.7687L4.75376 10.7817C4.85859 10.8012 4.93067 10.8207 4.97653 10.8467C5.0224 10.8727 5.05516 10.9117 5.07481 10.9637C5.09447 11.0092 5.10102 11.0677 5.08792 11.1262C5.07481 11.1977 5.04205 11.2562 4.98964 11.2952C4.94377 11.3342 4.8717 11.3537 4.77997 11.3537C4.81928 11.3861 4.85204 11.4186 4.8717 11.4511C4.89791 11.4901 4.92412 11.5486 4.95688 11.6331L5.04205 11.8476L4.80618 11.8021L4.70134 11.5616C4.68824 11.5421 4.68169 11.5161 4.66858 11.4966ZM5.24517 10.8792L5.44173 10.8987L5.39587 11.4381C5.38932 11.5226 5.38931 11.5811 5.38931 11.6006C5.39587 11.6461 5.41552 11.6786 5.44173 11.7046C5.47449 11.7371 5.5138 11.7501 5.57277 11.7566C5.63174 11.7631 5.67761 11.7501 5.70382 11.7306C5.73658 11.7111 5.75623 11.6851 5.76934 11.6526C5.77589 11.6201 5.78244 11.5616 5.78899 11.4836L5.83486 10.9312L6.03797 10.9507L5.99211 11.4706C5.98556 11.5941 5.97245 11.6786 5.9528 11.7241C5.93969 11.7696 5.91348 11.8151 5.88728 11.8411C5.85452 11.8736 5.80865 11.8996 5.75623 11.9126C5.71037 11.9321 5.64485 11.9321 5.56622 11.9256C5.46794 11.9191 5.39587 11.8996 5.35 11.8736C5.30414 11.8476 5.26483 11.8151 5.23862 11.7826C5.21241 11.7436 5.1993 11.7046 5.19275 11.6656C5.1862 11.6071 5.1862 11.5226 5.19275 11.4121L5.24517 10.8792ZM3.65301 11.1717L3.69232 11.0092L4.11821 11.1197L4.01337 11.5031C3.96096 11.5356 3.89543 11.5551 3.8037 11.5616C3.71853 11.5681 3.6399 11.5616 3.56128 11.5421C3.45644 11.5161 3.37127 11.4706 3.3123 11.4121C3.24678 11.3472 3.20746 11.2692 3.18781 11.1847C3.1747 11.0937 3.1747 11.0027 3.20091 10.9117C3.22712 10.8142 3.27298 10.7297 3.33851 10.6583C3.39747 10.5933 3.4761 10.5543 3.56783 10.5348C3.6399 10.5153 3.72508 10.5218 3.81681 10.5478C3.93475 10.5803 4.02648 10.6258 4.07889 10.6972C4.13131 10.7622 4.15752 10.8467 4.15097 10.9377L3.94785 10.9247C3.94785 10.8727 3.93475 10.8272 3.90199 10.7882C3.86923 10.7557 3.82991 10.7232 3.77094 10.7102C3.68577 10.6908 3.61369 10.6972 3.54817 10.7362C3.48265 10.7752 3.43679 10.8532 3.40403 10.9572C3.37127 11.0742 3.37782 11.1652 3.41058 11.2367C3.44989 11.3082 3.50886 11.3537 3.58749 11.3731C3.63335 11.3861 3.67266 11.3861 3.71853 11.3861C3.76439 11.3796 3.8037 11.3666 3.84302 11.3537L3.87578 11.2302L3.65301 11.1717ZM4.66858 10.7687L4.32787 10.7102L4.15752 11.6916L4.35408 11.7241L4.42616 11.3147L4.47202 11.3212C4.51788 11.3277 4.55065 11.3407 4.5703 11.3472C4.58996 11.3601 4.60306 11.3796 4.62272 11.3991C4.62927 11.4186 4.64893 11.4511 4.66858 11.4966V11.1912C4.64893 11.1912 4.62927 11.1847 4.60306 11.1847L4.45892 11.1587L4.49823 10.9117L4.65548 10.9377C4.66203 10.9377 4.66858 10.9377 4.66858 10.9377V10.7687Z" fill="#003399"/>
<path fill-rule="evenodd" clip-rule="evenodd" d="M35.8959 9.55334V7.72061H36.7084V4.4971L35.8959 6.10886V2.08596H39.0868L39.8993 11.3536H36.7084V9.55334H35.8959ZM35.8959 2.08596V6.10886L35.0835 7.72061H35.8959V9.55334H34.3628L33.7337 11.2561H31.755V9.1374L33.9631 4.41261H33.511L34.769 2.08596H35.8959ZM31.755 5.173L32.7444 2.84635L31.755 2.30043V5.173ZM23.8859 4.28263C23.9318 4.01617 23.9318 3.75621 23.8859 3.50925V4.28263ZM31.755 2.30043V5.173L31.624 5.48495C29.6714 4.10066 26.7885 5.36147 26.6247 6.82375C26.4609 8.35102 27.6337 9.58583 30.628 8.66297L29.5994 11.3926C25.6484 11.828 24.1152 10.2747 23.8859 8.4615V7.43466C23.9449 6.96023 24.0694 6.4988 24.2397 6.06986C26.1857 1.27358 29.3438 2.35242 30.5429 2.26144L30.7198 1.72852L31.755 2.30043ZM31.755 9.1374L30.7656 11.2561H31.755V9.1374ZM20.3347 11.1976C22.451 10.7817 24.528 8.26003 22.4445 6.25183C23.2569 5.8229 23.7614 5.04952 23.8859 4.28263V3.50925C23.7418 2.70987 23.1193 2.05997 21.9465 2.04047L20.3347 2.00797V3.78871H21.003C21.7172 3.78871 21.6254 5.62143 20.7344 5.62143H20.3347V7.02522C21.2978 7.20719 20.9571 8.53299 20.3347 8.94243V11.1976ZM23.8859 7.43466V8.4615C23.8466 8.12355 23.8466 7.7791 23.8859 7.43466ZM17.5435 1.94948L16.2396 4.4581L16.8228 4.41261L15.2502 11.2561H19.7515C19.9481 11.2561 20.1381 11.2366 20.3347 11.1976V8.94243C20.2233 9.02042 20.0988 9.06591 19.9743 9.06591H18.3559L18.8932 7.00572H20.1054C20.1905 7.00572 20.2692 7.01222 20.3347 7.02522V5.62143H19.2077L19.6598 3.78871H20.3347V2.00797L17.5435 1.94948Z" fill="#003399"/>
</svg>
