<svg width="22" height="20" viewBox="0 0 22 20" fill="none" xmlns="http://www.w3.org/2000/svg">
<path d="M10.4294 0.756231C10.609 0.203444 11.391 0.203444 11.5706 0.75623L13.5595 6.87721C13.6398 7.12442 13.8702 7.2918 14.1301 7.2918H20.5661C21.1473 7.2918 21.389 8.03557 20.9187 8.37721L15.7119 12.1602C15.5016 12.313 15.4136 12.5838 15.494 12.831L17.4828 18.952C17.6624 19.5048 17.0297 19.9644 16.5595 19.6228L11.3527 15.8398C11.1424 15.687 10.8576 15.687 10.6473 15.8398L5.44052 19.6228C4.97029 19.9644 4.3376 19.5048 4.51721 18.952L6.50604 12.831C6.58636 12.5838 6.49837 12.313 6.28807 12.1602L1.08126 8.37721C0.611033 8.03557 0.852698 7.2918 1.43393 7.2918H7.86991C8.12984 7.2918 8.36022 7.12442 8.44054 6.87721L10.4294 0.756231Z" fill="#DDDDDD"/>
</svg>
