<svg width="33" height="13" viewBox="0 0 33 13" fill="none" xmlns="http://www.w3.org/2000/svg">
<path fill-rule="evenodd" clip-rule="evenodd" d="M14.9455 10.1062V6.31464H16.9264C17.7381 6.31464 18.4233 6.04594 18.9818 5.51601L19.1158 5.38166C20.1361 4.28448 20.069 2.57527 18.9818 1.5602C18.4382 1.0228 17.6935 0.731713 16.9264 0.746641H13.7466V10.1062H14.9455ZM14.9458 5.16489V1.89574H16.9567C17.3887 1.89574 17.7984 2.05994 18.1038 2.3585C18.7517 2.98546 18.7666 4.03039 18.141 4.67974C17.8356 5.00068 17.4036 5.17981 16.9567 5.16489H14.9458ZM24.7085 4.20246C24.1947 3.73224 23.4947 3.4934 22.6085 3.4934C21.4691 3.4934 20.6127 3.91137 20.0467 4.73985L21.1042 5.40413C21.4914 4.83688 22.0202 4.55326 22.6904 4.55326C23.1149 4.55326 23.5244 4.71 23.8447 4.99362C24.1574 5.26232 24.3362 5.65044 24.3362 6.06095V6.33711C23.8745 6.08334 23.2936 5.94899 22.5787 5.94899C21.7446 5.94899 21.0744 6.14305 20.5755 6.53863C20.0765 6.93421 19.8233 7.45668 19.8233 8.12096C19.8084 8.72552 20.0691 9.30024 20.5308 9.68835C20.9999 10.1063 21.5957 10.3153 22.2957 10.3153C23.1223 10.3153 23.7776 9.94959 24.2766 9.21814H24.3287V10.1063H25.4755V6.15798C25.4755 5.32949 25.2223 4.67268 24.7085 4.20246ZM21.4543 8.92724C21.2085 8.74811 21.0596 8.45702 21.0596 8.14354C21.0596 7.79274 21.2234 7.50166 21.5437 7.27028C21.8714 7.0389 22.281 6.91948 22.7652 6.91948C23.4355 6.91202 23.9569 7.06129 24.3293 7.35984C24.3293 7.86738 24.1282 8.30775 23.7334 8.68094C23.3759 9.0392 22.8918 9.24072 22.3853 9.24072C22.0502 9.24818 21.7224 9.13623 21.4543 8.92724ZM28.0522 12.9199L32.0586 3.70211H30.7554L28.9011 8.29981H28.8788L26.9798 3.70211H25.6766L28.3054 9.69554L26.816 12.9199H28.0522Z" fill="#3C4043"/>
<path d="M10.8062 5.49401C10.8062 5.12829 10.7765 4.76256 10.7169 4.4043H5.6604V6.47177H8.55726C8.43811 7.13605 8.05087 7.73315 7.4849 8.10634V9.44983H9.21259C10.2254 8.51685 10.8062 7.13605 10.8062 5.49401Z" fill="#4285F4"/>
<path d="M5.6607 10.7482C7.1054 10.7482 8.3267 10.2705 9.21289 9.44953L7.4852 8.10604C7.00115 8.43445 6.38305 8.62105 5.6607 8.62105C4.26067 8.62105 3.07661 7.67314 2.65213 6.4043H0.872314V7.79256C1.78084 9.60627 3.63513 10.7482 5.6607 10.7482Z" fill="#34A853"/>
<path d="M2.65235 6.40468C2.4289 5.7404 2.4289 5.01641 2.65235 4.34467V2.96387H0.872243C0.105086 4.47902 0.105086 6.27033 0.872243 7.78548L2.65235 6.40468Z" fill="#FBBC04"/>
<path d="M5.6607 2.12751C6.42773 2.11258 7.16498 2.40367 7.71605 2.9336L9.25012 1.39606C8.27457 0.485472 6.9937 -0.0146028 5.6607 0.000324832C3.63513 0.000324832 1.78084 1.14975 0.872314 2.96345L2.65213 4.35172C3.07661 3.07541 4.26067 2.12751 5.6607 2.12751Z" fill="#EA4335"/>
</svg>
