<svg width="24" height="18" viewBox="0 0 24 18" fill="none" xmlns="http://www.w3.org/2000/svg">
<path fill-rule="evenodd" clip-rule="evenodd" d="M7.12892 15.3582V16.2695V17.1807H6.72999V16.9595C6.60346 17.1236 6.41146 17.2266 6.15049 17.2266C5.63602 17.2266 5.2327 16.8264 5.2327 16.2695C5.2327 15.713 5.63602 15.3124 6.15049 15.3124C6.41146 15.3124 6.60346 15.4154 6.72999 15.5795V15.3582H7.12892ZM6.20013 15.6857C5.85481 15.6857 5.64348 15.9489 5.64348 16.2693C5.64348 16.5896 5.85481 16.8528 6.20013 16.8528C6.53008 16.8528 6.75283 16.601 6.75283 16.2693C6.75283 15.9376 6.53008 15.6857 6.20013 15.6857ZM20.6098 16.2693C20.6098 15.9489 20.8212 15.6857 21.1665 15.6857C21.4969 15.6857 21.7192 15.9376 21.7192 16.2693C21.7192 16.601 21.4969 16.8528 21.1665 16.8528C20.8212 16.8528 20.6098 16.5896 20.6098 16.2693ZM22.0957 14.6263V16.2695V17.1807H21.6963V16.9595C21.5698 17.1236 21.3778 17.2266 21.1168 17.2266C20.6024 17.2266 20.199 16.8264 20.199 16.2695C20.199 15.713 20.6024 15.3124 21.1168 15.3124C21.3778 15.3124 21.5698 15.4154 21.6963 15.5795V14.6263L22.0957 14.6263ZM12.0808 15.6673C12.3378 15.6673 12.503 15.8275 12.5452 16.1094H11.5931C11.6357 15.8462 11.7965 15.6673 12.0808 15.6673ZM11.1748 16.2695C11.1748 15.7012 11.5509 15.3124 12.0887 15.3124C12.6027 15.3124 12.9559 15.7012 12.9599 16.2695C12.9599 16.3227 12.9559 16.3725 12.952 16.4218H11.5896C11.6471 16.75 11.8813 16.8682 12.1383 16.8682C12.3224 16.8682 12.5183 16.7993 12.6721 16.6775L12.8676 16.9712C12.6449 17.158 12.3918 17.2266 12.1155 17.2266C11.5663 17.2266 11.1748 16.849 11.1748 16.2695ZM16.9057 16.2693C16.9057 15.9489 17.117 15.6857 17.4623 15.6857C17.7923 15.6857 18.015 15.9376 18.015 16.2693C18.015 16.601 17.7923 16.8528 17.4623 16.8528C17.117 16.8528 16.9057 16.5896 16.9057 16.2693ZM18.3911 15.3582V16.2695V17.1807H17.9922V16.9595C17.8652 17.1236 17.6737 17.2266 17.4127 17.2266C16.8982 17.2266 16.4949 16.8264 16.4949 16.2695C16.4949 15.713 16.8982 15.3124 17.4127 15.3124C17.6737 15.3124 17.8652 15.4154 17.9922 15.5795V15.3582H18.3911ZM14.6527 16.2695C14.6527 16.8224 15.0402 17.2266 15.6316 17.2266C15.9079 17.2266 16.092 17.1655 16.2915 17.0092L16.0999 16.6889C15.9501 16.7958 15.7928 16.853 15.6197 16.853C15.3012 16.849 15.067 16.6204 15.067 16.2695C15.067 15.9186 15.3012 15.6899 15.6197 15.6859C15.7928 15.6859 15.9501 15.7431 16.0999 15.85L16.2915 15.5297C16.092 15.3735 15.9079 15.3124 15.6316 15.3124C15.0402 15.3124 14.6527 15.7165 14.6527 16.2695ZM19.3124 15.5795C19.416 15.4194 19.5659 15.3124 19.7961 15.3124C19.8769 15.3124 19.992 15.3277 20.0803 15.3622L19.9573 15.7358C19.873 15.7013 19.7886 15.69 19.7078 15.69C19.4468 15.69 19.3163 15.8576 19.3163 16.1591V17.1808H18.917V15.3583H19.3124V15.5795ZM9.10197 15.5031C8.90998 15.3774 8.64549 15.3124 8.35377 15.3124C7.88894 15.3124 7.58975 15.5336 7.58975 15.8959C7.58975 16.1931 7.81249 16.3764 8.22284 16.4336L8.41132 16.4602C8.63012 16.4907 8.73336 16.5479 8.73336 16.6509C8.73336 16.7919 8.5875 16.8722 8.31511 16.8722C8.03876 16.8722 7.83929 16.7845 7.70485 16.6815L7.51682 16.99C7.73561 17.1502 8.01196 17.2266 8.31115 17.2266C8.841 17.2266 9.1481 16.9787 9.1481 16.6317C9.1481 16.3114 8.90646 16.1438 8.5071 16.0866L8.31906 16.0595C8.1464 16.0368 8.008 16.0028 8.008 15.8806C8.008 15.747 8.13849 15.6672 8.35728 15.6672C8.59145 15.6672 8.81816 15.7549 8.92931 15.8234L9.10197 15.5031ZM13.7661 15.5795C13.8693 15.4194 14.0192 15.3124 14.2494 15.3124C14.3302 15.3124 14.4453 15.3277 14.5336 15.3622L14.4106 15.7358C14.3263 15.7013 14.2419 15.69 14.1611 15.69C13.9001 15.69 13.7696 15.8576 13.7696 16.1591V17.1808H13.3707V15.3583H13.7661V15.5795ZM10.8448 15.3582H10.1924V14.8052H9.78908V15.3582H9.41696V15.7204H9.78908V16.5518C9.78908 16.9747 9.95428 17.2266 10.4261 17.2266C10.5992 17.2266 10.7987 17.1733 10.9252 17.0856L10.8101 16.746C10.6911 16.8146 10.5606 16.849 10.4569 16.849C10.2574 16.849 10.1924 16.7268 10.1924 16.544V15.7204H10.8448V15.3582ZM4.87988 16.0369V17.1808H4.47656V16.1665C4.47656 15.8576 4.34607 15.686 4.07368 15.686C3.80875 15.686 3.62467 15.8541 3.62467 16.1705V17.1808H3.22135V16.1665C3.22135 15.8576 3.08735 15.686 2.82242 15.686C2.54959 15.686 2.37297 15.8541 2.37297 16.1705V17.1808H1.97009L1.97009 15.3583H2.36946V15.583C2.51927 15.3696 2.71083 15.3124 2.90678 15.3124C3.18708 15.3124 3.38654 15.4346 3.51307 15.6367C3.68222 15.381 3.92386 15.3085 4.15803 15.3124C4.60353 15.3164 4.87988 15.6062 4.87988 16.0369Z" fill="#231F20"/>
<path d="M15.0161 12.2607H8.96985V1.4668H15.0161V12.2607Z" fill="#FF5F00"/>
<path d="M9.35338 6.86479C9.35338 4.67519 10.3854 2.72476 11.9925 1.46782C10.8173 0.54869 9.33405 9.05991e-05 7.72209 9.05991e-05C3.90593 9.05991e-05 0.8125 3.07347 0.8125 6.86479C0.8125 10.6561 3.90593 13.7295 7.72209 13.7295C9.33405 13.7295 10.8173 13.1809 11.9925 12.2618C10.3854 11.0048 9.35338 9.05439 9.35338 6.86479Z" fill="#EB001B"/>
<path d="M23.173 6.86479C23.173 10.6561 20.0796 13.7295 16.2634 13.7295C14.6515 13.7295 13.1682 13.1809 11.9926 12.2618C13.6001 11.0048 14.6321 9.05439 14.6321 6.86479C14.6321 4.67519 13.6001 2.72476 11.9926 1.46782C13.1682 0.54869 14.6515 9.05991e-05 16.2634 9.05991e-05C20.0796 9.05991e-05 23.173 3.07347 23.173 6.86479Z" fill="#F79E1B"/>
</svg>
