<svg width="49" height="13" viewBox="0 0 49 13" fill="none" xmlns="http://www.w3.org/2000/svg">
<path fill-rule="evenodd" clip-rule="evenodd" d="M6.65475 0H2.92372C2.66838 0 2.45123 0.186344 2.41135 0.439612L0.902341 10.0497C0.87239 10.2394 1.01863 10.4102 1.2101 10.4102H2.99127C3.24661 10.4102 3.46376 10.2241 3.50364 9.97033L3.91058 7.37824C3.94985 7.12451 4.16745 6.93817 4.42234 6.93817H5.60342C8.06107 6.93817 9.47947 5.74351 9.85003 3.3763C10.0169 2.34051 9.85706 1.52682 9.37418 0.956893C8.84392 0.331091 7.90337 0 6.65475 0ZM7.08497 3.51002C6.88096 4.85479 5.85805 4.85479 4.86905 4.85479H4.30595L4.70096 2.34329C4.7245 2.19149 4.8553 2.07974 5.00811 2.07974H5.26621C5.93995 2.07974 6.57549 2.07974 6.90388 2.46548C7.09979 2.69557 7.15969 3.03756 7.08497 3.51002Z" fill="#28356A"/>
<path fill-rule="evenodd" clip-rule="evenodd" d="M17.9027 3.39345H16.116C15.9638 3.39345 15.8323 3.5052 15.8089 3.65701L15.7297 4.15894L15.6049 3.97705C15.2181 3.4131 14.3555 3.22461 13.4947 3.22461C11.5202 3.22461 9.83396 4.72672 9.50557 6.83376C9.33488 7.88475 9.57755 8.88984 10.1712 9.5907C10.7157 10.2351 11.4947 10.5037 12.4215 10.5037C14.0124 10.5037 14.8945 9.47619 14.8945 9.47619L14.8148 9.9749C14.7849 10.1655 14.9311 10.3365 15.1215 10.3365H16.7308C16.9867 10.3365 17.2028 10.1502 17.2432 9.89646L18.2088 3.75402C18.2393 3.56491 18.0935 3.39345 17.9027 3.39345ZM15.4122 6.88631C15.2398 7.91151 14.4298 8.59979 13.3964 8.59979C12.8777 8.59979 12.4631 8.43263 12.1967 8.11597C11.9327 7.80146 11.8324 7.35371 11.9163 6.855C12.0774 5.83855 12.901 5.12771 13.9186 5.12771C14.4259 5.12771 14.8384 5.29717 15.1101 5.61644C15.3822 5.93924 15.4903 6.38975 15.4122 6.88631Z" fill="#28356A"/>
<path fill-rule="evenodd" clip-rule="evenodd" d="M27.2807 3.54785H25.4852C25.3139 3.54785 25.153 3.63335 25.0559 3.77641L22.5796 7.4402L21.53 3.91931C21.464 3.69905 21.2616 3.54785 21.0324 3.54785H19.2682C19.0537 3.54785 18.9048 3.75829 18.973 3.96106L20.9507 9.79053L19.0914 12.427C18.9452 12.6347 19.0925 12.9202 19.3451 12.9202H21.1383C21.3086 12.9202 21.4678 12.8368 21.5644 12.6967L27.5359 4.03827C27.6789 3.8312 27.5321 3.54785 27.2807 3.54785Z" fill="#28356A"/>
<path fill-rule="evenodd" clip-rule="evenodd" d="M33.2662 0H29.5347C29.2799 0 29.0628 0.186344 29.0229 0.439612L27.5139 10.0497C27.484 10.2394 27.6302 10.4102 27.8206 10.4102H29.7355C29.9132 10.4102 30.0654 10.2799 30.0932 10.1023L30.5215 7.37824C30.5608 7.12451 30.7786 6.93817 31.0333 6.93817H32.2139C34.672 6.93817 36.09 5.74351 36.461 3.3763C36.6285 2.34051 36.4676 1.52682 35.9847 0.956893C35.4549 0.331091 34.5149 0 33.2662 0ZM33.6967 3.51002C33.4932 4.85479 32.4703 4.85479 31.4807 4.85479H30.9183L31.3138 2.34329C31.3372 2.19149 31.4671 2.07974 31.6203 2.07974H31.8784C32.5516 2.07974 33.1877 2.07974 33.5161 2.46548C33.712 2.69557 33.7715 3.03756 33.6967 3.51002Z" fill="#298FC2"/>
<path fill-rule="evenodd" clip-rule="evenodd" d="M44.5117 3.39345H42.7261C42.5729 3.39345 42.4425 3.5052 42.4196 3.65701L42.3404 4.15894L42.215 3.97705C41.8282 3.4131 40.9662 3.22461 40.1053 3.22461C38.131 3.22461 36.4453 4.72672 36.1169 6.83376C35.9467 7.88475 36.1883 8.88984 36.7818 9.5907C37.3275 10.2351 38.1053 10.5037 39.0322 10.5037C40.623 10.5037 41.5052 9.47619 41.5052 9.47619L41.4256 9.9749C41.3956 10.1655 41.5417 10.3365 41.7333 10.3365H43.3421C43.5969 10.3365 43.814 10.1502 43.8539 9.89646L44.82 3.75402C44.8494 3.56491 44.7032 3.39345 44.5117 3.39345ZM42.0213 6.88631C41.85 7.91151 41.0387 8.59979 40.0054 8.59979C39.4877 8.59979 39.072 8.43263 38.8057 8.11597C38.5418 7.80146 38.4425 7.35371 38.5253 6.855C38.6874 5.83855 39.51 5.12771 40.5276 5.12771C41.0349 5.12771 41.4473 5.29717 41.719 5.61644C41.9922 5.93924 42.1003 6.38975 42.0213 6.88631Z" fill="#298FC2"/>
<path fill-rule="evenodd" clip-rule="evenodd" d="M46.4693 0.264166L44.938 10.0501C44.908 10.2399 45.0541 10.4107 45.2445 10.4107H46.7841C47.0401 10.4107 47.2571 10.2245 47.2963 9.97079L48.8064 0.361176C48.8365 0.171455 48.6903 0 48.4999 0H46.776C46.6238 0.000460488 46.4928 0.112359 46.4693 0.264166Z" fill="#298FC2"/>
</svg>
