<svg width="40" height="13" viewBox="0 0 40 13" fill="none" xmlns="http://www.w3.org/2000/svg">
<path fill-rule="evenodd" clip-rule="evenodd" d="M9.82503 12.8196H6.424L3.87363 2.79657C3.75258 2.33551 3.49556 1.92791 3.11748 1.7358C2.17394 1.25302 1.13423 0.868809 0 0.675031V0.289145H5.4788C6.23496 0.289145 6.80207 0.868809 6.89659 1.54202L8.21986 8.77195L11.6192 0.289145H14.9258L9.82503 12.8196ZM16.8161 12.8196H13.6041L16.249 0.289145H19.461L16.8161 12.8196ZM23.6166 3.7603C23.7111 3.08542 24.2782 2.69953 24.9398 2.69953C25.9796 2.60264 27.1121 2.79642 28.0573 3.27752L28.6244 0.579664C27.6792 0.193778 26.6395 0 25.696 0C22.5785 0 20.3101 1.73565 20.3101 4.14451C20.3101 5.97705 21.9169 6.93926 23.0511 7.51893C24.2782 8.09692 24.7508 8.48281 24.6563 9.0608C24.6563 9.92779 23.7111 10.3137 22.7676 10.3137C21.6333 10.3137 20.4991 10.0247 19.461 9.54191L18.8939 12.2414C20.0282 12.7225 21.2552 12.9163 22.3895 12.9163C25.885 13.0115 28.0573 11.2776 28.0573 8.67491C28.0573 5.39739 23.6166 5.20528 23.6166 3.7603ZM39.2985 12.8196L36.7481 0.289145H34.0087C33.4416 0.289145 32.8745 0.675031 32.6855 1.25302L27.9628 12.8196H31.2693L31.9293 10.9887H35.992L36.3701 12.8196H39.2985ZM34.4813 3.66321L35.4249 8.38571H32.78L34.4813 3.66321Z" fill="#172B85"/>
</svg>
