<svg width="100" height="100" viewBox="0 0 100 100" fill="none" xmlns="http://www.w3.org/2000/svg">
<circle cx="50" cy="50" r="50" fill="#FCFCFC"/>
<path fill-rule="evenodd" clip-rule="evenodd" d="M49.5 62.1663C49.5 62.1663 49.5 41.7497 49.5 41.7497C49.5 41.7497 46.5833 38.833 43.6666 38.833C40.75 38.833 36.375 41.7497 36.375 41.7497C36.375 41.7497 36.375 62.1663 36.375 62.1663C36.375 62.1663 40.75 59.2497 43.6666 59.2497C46.5833 59.2497 49.5 62.1663 49.5 62.1663Z" stroke="#C0304F" stroke-width="2" stroke-linecap="round" stroke-linejoin="round"/>
<path fill-rule="evenodd" clip-rule="evenodd" d="M49.5 62.1663C49.5 62.1663 49.5 41.7497 49.5 41.7497C49.5 41.7497 52.4167 38.833 55.3334 38.833C58.25 38.833 62.625 41.7497 62.625 41.7497C62.625 41.7497 62.625 62.1663 62.625 62.1663C62.625 62.1663 58.25 59.2497 55.3334 59.2497C52.4167 59.2497 49.5 62.1663 49.5 62.1663Z" stroke="#C0304F" stroke-width="2" stroke-linecap="round" stroke-linejoin="round"/>
</svg>
