<svg width="100" height="100" viewBox="0 0 100 100" fill="none" xmlns="http://www.w3.org/2000/svg">
<circle cx="50" cy="50" r="50" fill="#FCFCFC"/>
<path d="M50.5975 41.6391C49.8002 42.1669 49.0319 42.7789 48.3222 43.4886C47.2766 44.5341 47.3047 44.5908 46.3698 45.661M50.5975 41.6391C55.5929 38.3326 61.7277 38.3326 61.7277 38.3326C61.7277 38.3326 61.7277 44.4675 58.4212 49.4628M50.5975 41.6391L58.4212 49.4628M58.4212 49.4628C57.8934 50.2602 57.2814 51.0285 56.5717 51.7382C55.5262 52.7837 55.4695 52.7556 54.3993 53.6905M40.918 52.5836C40.3748 53.3472 40.0726 53.8005 40.0726 53.8005L46.2598 59.9877C46.2598 59.9877 46.7132 59.6855 47.4767 59.1423M40.918 52.5836L35.9478 47.6134L44.1974 43.4886L46.3698 45.661M40.918 52.5836C41.9744 51.0984 43.9422 48.4396 46.3698 45.661M47.4767 59.1423L52.447 64.1125L56.5717 55.8629L54.3993 53.6905M47.4767 59.1423C48.962 58.0859 51.6207 56.1181 54.3993 53.6905" stroke="#C0304F" stroke-width="2"/>
<path d="M39.2917 60.7079C39.8026 58.6408 40.75 57.7914 41.4792 58.5205C42.2084 59.2496 41.3589 60.1971 39.2917 60.7079Z" stroke="#C0304F"/>
</svg>
