<svg width="18" height="18" viewBox="0 0 18 18" fill="none" xmlns="http://www.w3.org/2000/svg">
<path fill-rule="evenodd" clip-rule="evenodd" d="M1.86154 8.78634C1.86154 4.84415 5.05774 1.64795 8.99993 1.64795C10.8815 1.64795 12.5877 2.38189 13.861 3.56853C13.9699 3.67011 14.033 3.81161 14.0356 3.96057C14.0382 4.10953 13.9802 4.25316 13.8749 4.35851L12.0111 6.22229C11.8054 6.42793 11.4751 6.43757 11.2578 6.24428C10.6552 5.70816 9.86657 5.38188 8.99993 5.38188C7.11984 5.38188 5.59547 6.90625 5.59547 8.78634C5.59547 10.6664 7.11984 12.1908 8.99993 12.1908C10.1888 12.1908 11.2345 11.5797 11.8427 10.6533H8.99993C8.69667 10.6533 8.45083 10.4075 8.45083 10.1042V7.46848C8.45083 7.16522 8.69667 6.91938 8.99993 6.91938H15.4611C15.7232 6.91938 15.9488 7.10465 15.9997 7.36178C16.0894 7.81461 16.1383 8.30897 16.1383 8.78634C16.1383 12.7285 12.9421 15.9247 8.99993 15.9247C5.05774 15.9247 1.86154 12.7285 1.86154 8.78634ZM8.99993 2.74616C5.66426 2.74616 2.95976 5.45067 2.95976 8.78634C2.95976 12.122 5.66426 14.8265 8.99993 14.8265C12.3356 14.8265 15.0401 12.122 15.0401 8.78634C15.0401 8.53191 15.0236 8.27095 14.9927 8.01759H9.54904V9.55509H12.7239C12.9022 9.55509 13.0694 9.64167 13.1723 9.78728C13.2752 9.93289 13.301 10.1194 13.2415 10.2875C12.6234 12.0331 10.9617 13.289 8.99993 13.289C6.51331 13.289 4.49726 11.273 4.49726 8.78634C4.49726 6.29972 6.51331 4.28366 8.99993 4.28366C9.96143 4.28366 10.8502 4.58764 11.5797 5.10052L12.6774 4.00284C11.658 3.21593 10.385 2.74616 8.99993 2.74616Z" fill="#232526"/>
</svg>
