<svg width="18" height="18" viewBox="0 0 18 18" fill="none" xmlns="http://www.w3.org/2000/svg">
<path d="M11.7143 5.1249C11.7143 4.72055 12.0421 4.39276 12.4464 4.39276C12.8508 4.39276 13.1786 4.72055 13.1786 5.1249C13.1786 5.52925 12.8508 5.85705 12.4464 5.85705C12.0421 5.85705 11.7143 5.52925 11.7143 5.1249Z" fill="#232526"/>
<path fill-rule="evenodd" clip-rule="evenodd" d="M8.78571 5.30794C6.86505 5.30794 5.30804 6.86495 5.30804 8.78562C5.30804 10.7063 6.86505 12.2633 8.78571 12.2633C10.7064 12.2633 12.2634 10.7063 12.2634 8.78562C12.2634 6.86495 10.7064 5.30794 8.78571 5.30794ZM6.40625 8.78562C6.40625 7.47148 7.47157 6.40615 8.78571 6.40615C10.0999 6.40615 11.1652 7.47148 11.1652 8.78562C11.1652 10.0998 10.0999 11.1651 8.78571 11.1651C7.47157 11.1651 6.40625 10.0998 6.40625 8.78562Z" fill="#232526"/>
<path fill-rule="evenodd" clip-rule="evenodd" d="M12.6355 2.07407C10.0975 1.79041 7.47397 1.79041 4.93594 2.07407C3.46283 2.23872 2.27358 3.39917 2.10039 4.87995C1.79689 7.47488 1.79689 10.0963 2.10039 12.6913C2.27358 14.1721 3.46283 15.3325 4.93594 15.4972C7.47397 15.7808 10.0975 15.7808 12.6355 15.4972C14.1086 15.3325 15.2979 14.1721 15.4711 12.6913C15.7746 10.0963 15.7746 7.47488 15.4711 4.87995C15.2979 3.39917 14.1086 2.23872 12.6355 2.07407ZM5.05792 3.16549C7.51488 2.89089 10.0566 2.89089 12.5135 3.16549C13.4874 3.27433 14.2674 4.0428 14.3803 5.00753C14.6739 7.5177 14.6739 10.0535 14.3803 12.5637C14.2674 13.5284 13.4874 14.2969 12.5135 14.4057C10.0566 14.6803 7.51488 14.6803 5.05792 14.4057C4.08409 14.2969 3.304 13.5284 3.19117 12.5637C2.89758 10.0535 2.89758 7.5177 3.19117 5.00753C3.304 4.0428 4.08409 3.27433 5.05792 3.16549Z" fill="#232526"/>
</svg>
