<svg width="18" height="18" viewBox="0 0 18 18" fill="none" xmlns="http://www.w3.org/2000/svg">
<path fill-rule="evenodd" clip-rule="evenodd" d="M8.03238 6.11909C7.86274 6.01731 7.65147 6.01464 7.47932 6.11211C7.30717 6.20958 7.20076 6.39212 7.20076 6.58994V10.9828C7.20076 11.1806 7.30717 11.3632 7.47932 11.4606C7.65147 11.5581 7.86274 11.5554 8.03238 11.4537L11.6931 9.25723C11.8585 9.15799 11.9597 8.97925 11.9597 8.78637C11.9597 8.59349 11.8585 8.41475 11.6931 8.31552L8.03238 6.11909ZM10.3433 8.78637L8.29897 10.013V7.55977L10.3433 8.78637Z" fill="#232526"/>
<path fill-rule="evenodd" clip-rule="evenodd" d="M12.8973 3.39874C10.4456 3.20693 7.98271 3.20693 5.53102 3.39874L3.89051 3.52709C2.89292 3.60513 2.07681 4.3528 1.9119 5.33976C1.53063 7.62168 1.53063 9.95106 1.9119 12.233C2.07681 13.2199 2.89292 13.9676 3.89051 14.0457L5.53102 14.174C7.98271 14.3658 10.4456 14.3658 12.8973 14.174L14.5378 14.0457C15.5354 13.9676 16.3515 13.2199 16.5164 12.233C16.8977 9.95106 16.8977 7.62168 16.5164 5.33976C16.3515 4.3528 15.5354 3.60513 14.5378 3.52709L12.8973 3.39874ZM5.61668 4.49361C8.01135 4.30626 10.417 4.30626 12.8117 4.49361L14.4522 4.62195C14.9468 4.66065 15.3515 5.03137 15.4332 5.52075C15.7945 7.68284 15.7945 9.8899 15.4332 12.052C15.3515 12.5414 14.9468 12.9121 14.4522 12.9508L12.8117 13.0791C10.417 13.2665 8.01135 13.2665 5.61668 13.0791L3.97617 12.9508C3.48152 12.9121 3.07687 12.5414 2.9951 12.052C2.63385 9.8899 2.63385 7.68284 2.9951 5.52075C3.07687 5.03137 3.48152 4.66065 3.97617 4.62195L5.61668 4.49361Z" fill="#232526"/>
</svg>
