<svg width="63" height="62" viewBox="0 0 63 62" fill="none" xmlns="http://www.w3.org/2000/svg">
<path d="M27.6942 0.244255C27.4112 0.391911 27.0543 0.674915 26.8944 0.896397C26.636 1.26553 26.6237 1.37627 26.5868 4.80924L26.5498 8.35295H25.8854C24.7903 8.35295 24.2366 8.68517 24.2243 9.34962C24.2243 9.53419 24.335 9.81719 24.4827 10.0018C24.7288 10.3217 24.7534 10.3217 26.3038 10.3217C28.617 10.3217 28.4078 10.7277 28.4078 6.13813C28.4078 4.05867 28.4447 2.2622 28.4817 2.15146C28.5432 1.9792 28.9246 1.95459 31.484 1.95459C34.0433 1.95459 34.4247 1.9792 34.4863 2.15146C34.5232 2.2622 34.5601 4.04636 34.5601 6.12583C34.5601 9.64493 34.5724 9.92793 34.7816 10.1125C34.9908 10.2971 35.4829 10.3217 39.2727 10.3217C42.9764 10.3217 43.5547 10.3463 43.7147 10.5186C43.8869 10.6785 43.9116 11.1092 43.9116 13.3732C43.9116 14.8374 43.8623 16.1048 43.8131 16.1909C43.7393 16.3017 42.595 16.3509 39.3958 16.3755C35.3476 16.4124 35.0646 16.4247 34.8185 16.6462L34.5601 16.88V29.2092C34.5601 38.6221 34.5232 41.5629 34.4124 41.6737C34.2033 41.8828 28.7647 41.8828 28.5555 41.6737C28.4447 41.5629 28.4078 38.6221 28.4078 29.2092V16.88L28.1494 16.6462C27.9033 16.4247 27.6203 16.4124 23.5721 16.3755C20.373 16.3509 19.2286 16.3017 19.1548 16.1909C19.1056 16.1048 19.0564 14.8374 19.0564 13.3732C19.0564 10.1863 18.9949 10.3217 20.4099 10.3217C21.3081 10.3217 21.3942 10.2971 21.628 10.0018C21.7757 9.81719 21.8864 9.53419 21.8864 9.34962C21.8741 8.67287 21.3204 8.35295 20.1884 8.35295C18.7118 8.36526 18.0474 8.64826 17.4937 9.46036C17.2107 9.85411 17.2107 9.94024 17.2107 13.3978C17.2107 16.8677 17.2107 16.9415 17.4937 17.3476C17.6414 17.5691 17.9613 17.889 18.1828 18.0366C18.6011 18.3196 18.6503 18.3196 22.5755 18.3196H26.5621V30.2796V42.252L26.8451 42.7318C27.0174 43.0395 27.325 43.3225 27.6573 43.507C28.1863 43.7777 28.2848 43.79 31.4594 43.79C34.5232 43.79 34.757 43.7777 35.2615 43.5316C35.6183 43.3594 35.9013 43.101 36.0982 42.7565L36.4058 42.2274V30.2796V18.3196H40.3925C44.3176 18.3196 44.3668 18.3196 44.7852 18.0366C45.0067 17.889 45.3266 17.5691 45.4742 17.3476C45.7572 16.9415 45.7572 16.8677 45.7572 13.3978C45.7572 9.94024 45.7572 9.85411 45.4865 9.46036C45.0928 8.89435 44.6498 8.58674 44.0223 8.46369C43.727 8.41447 41.8936 8.36526 39.9495 8.35295H36.4058V4.9569C36.4058 1.10558 36.3689 0.945614 35.5075 0.379608L35.0154 0.0473824L31.6193 0.0104713C28.3586 -0.0141373 28.1987 -0.0141373 27.6942 0.244255Z" fill="#232526"/>
<path d="M30.8073 3.98494L30.4997 4.28025V8.35305V12.4136H25.9716C21.5789 12.4136 21.4312 12.4259 21.1728 12.6596C20.7668 13.0411 20.8037 13.7917 21.2221 14.1239C21.542 14.37 21.6896 14.3823 26.0208 14.3823H30.4997V26.9329V39.4959L30.8073 39.7912C31.201 40.1972 31.767 40.1972 32.1608 39.7912L32.4684 39.4959V26.9329V14.3823H36.9473C41.2785 14.3823 41.4261 14.37 41.746 14.1239C42.1644 13.7917 42.2013 13.0411 41.7953 12.6596C41.5369 12.4259 41.3892 12.4136 36.9965 12.4136H32.4684V8.35305V4.28025L32.1608 3.98494C31.9762 3.78807 31.7178 3.67733 31.484 3.67733C31.2503 3.67733 30.9919 3.78807 30.8073 3.98494Z" fill="#232526"/>
<path d="M9.48347 13.7666C9.24968 13.9881 9.21277 14.1481 9.21277 15.0586C9.21277 16.2768 9.39734 16.5967 10.1356 16.5967C10.8739 16.5967 11.0585 16.2768 11.0585 15.0586C11.0585 14.1481 11.0215 13.9881 10.7878 13.7666C10.6401 13.6313 10.3571 13.5205 10.1356 13.5205C9.91413 13.5205 9.63112 13.6313 9.48347 13.7666Z" fill="#232526"/>
<path d="M52.1797 13.7666C51.9459 13.9881 51.909 14.1481 51.909 15.0586C51.909 16.2768 52.0936 16.5967 52.8318 16.5967C53.5701 16.5967 53.7547 16.2768 53.7547 15.0586C53.7547 14.1481 53.7178 13.9881 53.484 13.7666C53.3363 13.6313 53.0533 13.5205 52.8318 13.5205C52.6104 13.5205 52.3274 13.6313 52.1797 13.7666Z" fill="#232526"/>
<path d="M7.00994 16.3629C6.3701 16.6213 6.19784 17.3104 6.6408 17.8764C6.87459 18.1717 6.96072 18.1963 7.93278 18.1963C8.8064 18.1963 9.00328 18.1594 9.21245 17.9502C9.47085 17.6918 9.53237 17.1012 9.3355 16.7197C9.10171 16.2891 7.73591 16.0676 7.00994 16.3629Z" fill="#232526"/>
<path d="M11.3537 16.3998C10.9354 16.5844 10.8123 16.7936 10.8123 17.3473C10.8123 17.9994 11.1691 18.1963 12.3381 18.1963C13.3101 18.1963 13.3963 18.1717 13.6301 17.8764C14.0853 17.2981 13.9008 16.609 13.224 16.3506C12.7564 16.1783 11.809 16.203 11.3537 16.3998Z" fill="#232526"/>
<path d="M49.7071 16.3629C49.0672 16.6213 48.895 17.3104 49.3379 17.8764C49.5717 18.1717 49.6579 18.1963 50.6299 18.1963C51.5035 18.1963 51.7004 18.1594 51.9096 17.9502C52.168 17.6918 52.2295 17.1012 52.0326 16.7197C51.7989 16.2891 50.4331 16.0676 49.7071 16.3629Z" fill="#232526"/>
<path d="M54.0504 16.3998C53.6321 16.5844 53.509 16.7936 53.509 17.3473C53.509 17.9994 53.8659 18.1963 55.0348 18.1963C56.0069 18.1963 56.093 18.1717 56.3268 17.8764C56.782 17.2981 56.5975 16.609 55.9207 16.3506C55.4532 16.1783 54.5057 16.203 54.0504 16.3998Z" fill="#232526"/>
<path d="M9.45886 18.1963C9.24968 18.4055 9.21277 18.6024 9.21277 19.476C9.21277 20.4481 9.23738 20.5342 9.53269 20.768C9.71725 20.9156 9.98795 21.0264 10.1356 21.0264C10.2833 21.0264 10.554 20.9156 10.7385 20.768C11.0338 20.5342 11.0585 20.4481 11.0585 19.476C11.0585 18.2701 10.8739 17.9502 10.1356 17.9502C9.86491 17.9502 9.60651 18.0487 9.45886 18.1963Z" fill="#232526"/>
<path d="M52.1551 18.1963C51.9459 18.4055 51.909 18.6024 51.909 19.476C51.909 20.4481 51.9336 20.5342 52.2289 20.768C52.4135 20.9156 52.6842 21.0264 52.8318 21.0264C52.9795 21.0264 53.2502 20.9156 53.4348 20.768C53.7301 20.5342 53.7547 20.4481 53.7547 19.476C53.7547 18.2701 53.5701 17.9502 52.8318 17.9502C52.5611 17.9502 52.3027 18.0487 52.1551 18.1963Z" fill="#232526"/>
<path d="M13.433 21.9492C13.0762 22.0969 12.8793 22.4168 11.7965 24.5947C10.5783 27.0433 10.566 27.0925 10.566 27.9539C10.566 28.9997 10.8983 29.8365 11.5873 30.5009L12.0303 30.9316L9.54476 32.888C7.90826 34.18 6.9239 34.8813 6.62859 34.9428C6.3948 34.9921 6.05027 35.2135 5.86571 35.4227L5.52118 35.7919V38.7326V41.6857L5.8411 41.9318C6.25945 42.264 6.62859 42.264 7.04694 41.9318L7.36686 41.6857V39.2248V36.7762H13.9498H20.5327V42.5594V48.3425H13.9498H7.36686V46.6814C7.36686 45.1433 7.35456 45.008 7.09616 44.7742C6.94851 44.6388 6.6655 44.5281 6.44402 44.5281C6.22254 44.5281 5.93953 44.6388 5.79188 44.7742C5.53348 45.008 5.52118 45.1433 5.52118 46.6814V48.3425H3.58937C1.41146 48.3425 0.857757 48.5024 0.328662 49.2407C0.0702667 49.6099 0.0456577 49.7821 0.00874403 51.6647C-0.0158651 53.5842 -0.00356052 53.7196 0.254835 54.1748C0.427098 54.4701 0.747017 54.7655 1.07924 54.95L1.62064 55.233H12.0672H22.5138L25.9098 57.9523C27.7801 59.4535 29.5643 60.7947 29.8719 60.9423C30.6717 61.2992 32.2959 61.2992 33.0834 60.9423C33.391 60.7947 35.1874 59.4535 37.0577 57.9523L40.4661 55.233H50.888C61.2115 55.233 61.31 55.233 61.8391 54.9746C62.1959 54.8024 62.4789 54.544 62.6881 54.1871C62.9957 53.658 62.9957 53.5965 62.9588 51.6401C62.9219 49.7944 62.8973 49.6099 62.6389 49.2407C62.1098 48.5024 61.5561 48.3425 59.3782 48.3425H57.4463V42.0549V35.7672L57.028 35.3489C56.7819 35.1028 56.4866 34.9305 56.3143 34.9305C56.1051 34.9305 55.1823 34.2784 53.472 32.9249L50.9372 30.9069L51.3802 30.4886C52.057 29.8365 52.4015 28.9997 52.4015 27.9539C52.4015 27.0925 52.3892 27.0433 51.171 24.5947C50.0267 22.2938 49.9037 22.1092 49.4853 21.9369C49.1039 21.777 48.9808 21.7647 48.5994 21.9123C48.181 22.06 48.0703 22.2322 46.9383 24.4717C45.6586 26.9941 45.474 27.597 45.6586 28.6306C45.7939 29.3812 46.0769 29.9103 46.6183 30.464L47.0859 30.9316L44.5881 32.9003C43.0131 34.143 41.9426 34.8936 41.6965 34.9428C41.1674 35.0536 40.7245 35.5212 40.5891 36.1118C40.4292 36.7762 40.4415 40.9598 40.5891 41.415C40.8229 42.0549 41.5612 42.2517 42.1149 41.8088L42.4348 41.5627V39.1633V36.7762H49.0177H55.6007V42.5594V48.3425H49.0177H42.4348V46.6445C42.4348 45.0203 42.4225 44.9218 42.1518 44.6757C41.8319 44.3681 41.2536 44.3312 40.9336 44.5773C40.5645 44.848 40.4661 45.3648 40.4661 46.8782V48.3425H31.4838H22.5014V42.4609C22.5014 39.2371 22.4399 36.3702 22.3784 36.1118C22.2431 35.5212 21.8001 35.0536 21.271 34.9428C21.0249 34.8936 19.9544 34.143 18.3794 32.9003L15.8816 30.9316L16.3492 30.464C16.8906 29.9103 17.1736 29.3812 17.3089 28.6306C17.4935 27.6093 17.3089 26.9941 16.0539 24.4963C14.9834 22.343 14.8234 22.0969 14.442 21.9369C13.9375 21.7278 13.9252 21.7278 13.433 21.9492ZM15.3894 27.9908C15.3894 28.2 15.3156 28.5076 15.2295 28.6675C15.0695 28.9505 15.0695 28.9382 14.9588 28.3476C14.8234 27.5478 14.5896 27.3017 13.9744 27.3017C13.2484 27.3017 13.0269 27.5601 13.0269 28.3968L13.0146 29.0859L12.7809 28.7906C12.3625 28.2861 12.4609 27.6955 13.2361 26.1328L13.9498 24.7178L14.6635 26.1574C15.0941 27.0064 15.3894 27.757 15.3894 27.9908ZM50.4204 27.9908C50.4328 28.323 50.3466 28.606 50.1867 28.7906L49.9529 29.0859L49.9406 28.4214C49.9406 27.5601 49.7191 27.3017 49.0177 27.3017C48.3779 27.3017 48.1441 27.5355 48.0088 28.3476C47.898 28.9259 47.8857 28.9505 47.7381 28.6798C47.4427 28.1384 47.5535 27.6709 48.2918 26.182L49.0177 24.7055L49.7191 26.0959C50.2236 27.1048 50.4204 27.6339 50.4204 27.9908ZM14.5404 32.4819C14.6881 32.5681 15.414 33.1095 16.1523 33.6878L17.4812 34.746L15.7586 34.7829C14.7988 34.7952 13.2115 34.7952 12.2148 34.7829L10.4061 34.746L11.735 33.7001C12.4732 33.1218 13.1869 32.5927 13.3223 32.5065C13.6545 32.3097 14.1959 32.3097 14.5404 32.4819ZM49.6453 32.5065C49.7806 32.5927 50.5066 33.1218 51.2325 33.7001L52.5614 34.746L50.8265 34.7829C49.8791 34.7952 48.2795 34.7952 47.2828 34.7829L45.474 34.746L46.8029 33.7001C48.4025 32.445 48.5502 32.3589 49.0177 32.3589C49.2269 32.3589 49.4976 32.4204 49.6453 32.5065ZM18.2195 51.7878L20.0775 53.2643H11.0951C4.27842 53.2643 2.08821 53.2274 1.97747 53.1166C1.81751 52.9567 1.76829 50.8649 1.90364 50.5081C1.97747 50.3358 2.72805 50.3112 9.17563 50.3112H16.3738L18.2195 51.7878ZM43.2223 50.422C42.6194 51.0003 32.5543 58.9736 32.2343 59.1213C31.6929 59.3797 30.8931 59.2935 30.3517 58.9121C29.9703 58.6414 19.9913 50.6557 19.7452 50.422C19.6714 50.3604 24.5194 50.3112 31.4838 50.3112C38.5712 50.3112 43.2961 50.3604 43.2223 50.422ZM61.0639 50.5081C61.1992 50.8649 61.15 52.9567 60.9901 53.1166C60.8793 53.2274 58.6891 53.2643 51.8724 53.2643H42.9024L44.7234 51.7878L46.5568 50.3235L53.7673 50.3112C60.2395 50.3112 60.9901 50.3358 61.0639 50.5081Z" fill="#232526"/>
</svg>
