<svg width="63" height="64" viewBox="0 0 63 64" fill="none" xmlns="http://www.w3.org/2000/svg">
<path d="M28.7188 1.2101L28.3005 1.62846V5.02451V8.42056H24.9044H21.5084L21.09 8.83892L20.6717 9.25727V11.6197V13.9822L21.09 14.4006L21.5084 14.8189H24.9044H28.3005V17.2675V19.7284L28.6204 19.9745C29.0388 20.3068 29.4079 20.3068 29.8262 19.9745L30.1462 19.7284V16.5539C30.1462 13.6377 30.1339 13.367 29.9247 13.1824C29.7278 12.9979 29.2725 12.9732 26.1103 12.9732H22.5173V11.6197V10.2662H26.1226C29.4694 10.2662 29.7524 10.2539 29.937 10.0448C30.1216 9.84789 30.1462 9.39262 30.1462 6.23035V2.63743H31.4997H32.8532V6.24266C32.8532 9.5895 32.8655 9.8725 33.0746 10.0571C33.2715 10.2416 33.7268 10.2662 36.889 10.2662H40.482V11.6197V12.9732H36.8767C33.5299 12.9732 33.2469 12.9855 33.0623 13.1947C32.8778 13.4039 32.8532 14.1053 32.8532 20.7005V27.9848H31.4997H30.1462V25.5485C30.1462 23.1491 30.1462 23.0999 29.8632 22.8415C29.5063 22.497 28.928 22.497 28.5712 22.8169C28.3128 23.063 28.3005 23.1614 28.3005 25.5239V27.9602L25.815 28.0094C23.514 28.0463 23.2679 28.0709 22.7511 28.3293C21.3853 29.0061 20.5609 30.1381 20.4502 31.5039L20.3887 32.2914H17.7063H15.0116V31.1101C15.0116 29.7689 14.8393 29.3383 14.1995 29.0307C13.6212 28.76 6.06617 28.76 5.48786 29.0307C4.84802 29.3383 4.67576 29.7689 4.67576 31.1101V32.2914H2.99003C1.08283 32.2914 0.713694 32.4144 0.246121 33.1773C0.0246396 33.5464 3.05176e-05 33.8048 3.05176e-05 36.1058C3.05176e-05 38.4067 0.0246396 38.6651 0.246121 39.0343C0.590649 39.6003 1.18127 39.9202 1.88263 39.9202H2.46094V42.9963V46.0848L2.76855 46.3801C3.1623 46.7861 3.72831 46.7861 4.12205 46.3801L4.42967 46.0848V42.9963V39.9202H9.22844H14.0272V47.8566V55.7931H9.22844H4.42967V52.7169V49.6285L4.12205 49.3332C3.72831 48.9271 3.1623 48.9271 2.76855 49.3332L2.46094 49.6285V55.6454V61.6623L2.74394 62.2037C2.92851 62.5359 3.21152 62.8436 3.51913 63.0158L3.99901 63.2988H31.4997H59.0003L59.4802 63.0158C59.7878 62.8436 60.0708 62.5359 60.2554 62.2037L60.5384 61.6623V50.7851V39.9202H61.129C61.8181 39.9202 62.4087 39.6003 62.7532 39.0343C62.9747 38.6651 62.9993 38.4067 62.9993 36.1058C62.9993 33.8048 62.9747 33.5464 62.7532 33.1773C62.2856 32.4144 61.9165 32.2914 60.0216 32.2914H58.3236V31.1101C58.3236 29.7689 58.1513 29.3383 57.5115 29.0307C56.9331 28.76 49.3782 28.76 48.7998 29.0307C48.16 29.3383 47.9877 29.7689 47.9877 31.1101V32.2914H45.2931H42.6107L42.5491 31.5039C42.4384 30.1381 41.7001 29.1045 40.322 28.3908C39.6945 28.0586 39.6207 28.0463 37.1967 28.0094L34.6988 27.9602V21.3896V14.8189H38.0949H41.4909L41.9093 14.4006L42.3277 13.9822V11.6197V9.25727L41.9093 8.83892L41.4909 8.42056H38.0949H34.6988V5.02451V1.62846L34.2805 1.2101L33.8621 0.791748H31.4997H29.1372L28.7188 1.2101ZM39.4484 30.1873C40.0021 30.4334 40.4205 30.9379 40.5435 31.5039C40.5927 31.7008 40.6542 31.9592 40.6912 32.0699C40.7404 32.2791 40.2482 32.2914 31.4997 32.2914H22.2713L22.3451 31.9469C22.382 31.7623 22.4435 31.5039 22.4804 31.3685C22.6035 30.901 23.0464 30.4211 23.5509 30.1873C24.0308 29.9781 24.4984 29.9535 31.4997 29.9535C38.5009 29.9535 38.9685 29.9781 39.4484 30.1873ZM13.1659 31.5531V32.2914H9.84366H6.52144V31.5531V30.8148H9.84366H13.1659V31.5531ZM56.4779 31.5531V32.2914H53.1557H49.8334V31.5531V30.8148H53.1557H56.4779V31.5531ZM17.4725 36.1058V38.0745L9.69601 38.0499L1.90723 38.013L1.87032 36.2288C1.85802 35.2568 1.87032 34.3832 1.89493 34.297C1.94415 34.174 3.48222 34.1371 9.72062 34.1371H17.4725V36.1058ZM21.1885 41.446C21.2254 48.6564 21.2254 48.7672 21.4838 49.1117C21.6314 49.2963 22.3697 49.8254 23.1449 50.2683C30.7368 54.6364 31.0444 54.8087 31.4997 54.8087C31.9549 54.8087 32.3856 54.5749 39.8544 50.2683C40.6296 49.8254 41.3679 49.2963 41.5156 49.1117C41.774 48.7672 41.774 48.6564 41.8109 41.446L41.8355 34.1371H42.6968H43.5581V42.0489C43.5581 49.4439 43.5458 49.9853 43.3489 50.1576C43.2259 50.256 40.5066 51.8433 37.3197 53.689L31.4997 57.0358L25.6919 53.689C22.4927 51.8433 19.7734 50.256 19.6627 50.1576C19.4535 49.9853 19.4412 49.4439 19.4412 42.0489V34.1371H20.3025H21.1638L21.1885 41.446ZM39.8421 41.0522L39.8052 47.9797L35.7447 50.3421C33.5176 51.6341 31.5981 52.6923 31.4997 52.6923C31.4012 52.6923 29.494 51.6341 27.2546 50.3421L23.1941 47.9797L23.1572 41.0522L23.1326 34.1371H31.4997H39.8667L39.8421 41.0522ZM61.0921 36.1058V38.013L53.3156 38.0499L45.5268 38.0745V36.1058V34.1371L53.3156 34.1617L61.0921 34.1986V36.1058ZM17.4848 45.1127C17.4971 50.6621 17.5094 50.8343 18.1 51.4619C18.4199 51.7941 29.8139 58.4385 30.6999 58.8077C31.2413 59.0415 31.7581 59.0415 32.3118 58.8077C33.21 58.4385 44.5794 51.7941 44.887 51.4619C45.4899 50.822 45.5022 50.6621 45.5145 45.1127L45.5268 39.9202H46.2651H47.0034V50.6867V61.4531H31.4997H15.9959V50.6867V39.9202H16.7342H17.4725L17.4848 45.1127ZM58.5697 47.8566V55.7931H56.1703C53.8693 55.7931 53.7709 55.8054 53.5248 56.0638C53.2049 56.4206 53.2049 56.9989 53.5494 57.3557C53.8078 57.6264 53.8693 57.6387 56.1949 57.6387H58.5697V59.3983C58.5697 60.6041 58.5204 61.2071 58.422 61.3055C58.3113 61.4162 57.0808 61.4531 53.6232 61.4531H48.9721V59.5459V57.6387H49.6981C50.3379 57.6387 50.461 57.6018 50.6824 57.3188C51.0147 56.9005 51.0147 56.4329 50.6701 56.0761C50.4487 55.8423 50.2764 55.7931 49.6858 55.7931H48.9721V47.8566V39.9202H53.7709H58.5697V47.8566ZM14.0272 59.5459V61.4531H9.42531C6.89057 61.4531 4.73728 61.4162 4.62654 61.3793C4.45428 61.3178 4.42967 61.0348 4.42967 59.4721V57.6387H9.22844H14.0272V59.5459Z" fill="#C0304F"/>
</svg>
