<svg width="63" height="64" viewBox="0 0 63 64" fill="none" xmlns="http://www.w3.org/2000/svg">
<path d="M19.4172 0.581982C18.6666 1.22182 18.6174 2.05853 19.2818 3.01828C19.5279 3.38742 19.9832 4.03956 20.2785 4.48252C21.4721 6.22977 22.5302 8.80141 22.9609 11.0039C23.1209 11.8529 23.1701 13.0957 23.2193 17.796L23.2808 23.5546H20.5246C17.916 23.5546 17.7561 23.5669 17.4977 23.8007C17.0916 24.1821 17.1285 24.9327 17.5469 25.2649C17.8545 25.511 18.0268 25.5233 20.8445 25.5233H23.8099L24.9788 26.6922L26.1478 27.8612H19.6018C15.9596 27.8612 12.502 27.7996 11.8007 27.7381C10.361 27.5905 8.35541 27.1598 7.07573 26.7291L6.21442 26.4461L6.1775 25.2034L6.14059 23.9606L7.531 24.4282C9.30286 25.0188 10.3734 25.2403 12.3913 25.4249C13.8555 25.5602 14.0278 25.5479 14.3231 25.351C14.7907 25.0434 14.926 24.6251 14.7169 24.1083C14.5077 23.6284 14.4339 23.6038 12.8589 23.493C9.6966 23.2716 6.62047 22.238 4.18417 20.5769C3.7412 20.2816 3.08906 19.8263 2.71993 19.5802C1.99396 19.0757 1.36643 18.9896 0.751199 19.2972C-0.0485966 19.7155 0.000621616 18.9034 0.000621616 31.7986C0.000621616 44.6938 -0.0485966 43.8817 0.751199 44.3C1.36643 44.6076 1.99396 44.5215 2.71993 44.017C3.08906 43.7709 3.7412 43.3157 4.18417 43.0203C5.93141 41.8268 8.49076 40.7809 10.7056 40.338C11.5669 40.1657 12.785 40.1288 17.51 40.0796L23.2808 40.018L23.2193 45.7889C23.1701 50.4892 23.1209 51.7443 22.9609 52.5933C22.5302 54.7958 21.4721 57.3674 20.2785 59.1147C19.9832 59.5577 19.5279 60.2098 19.2818 60.5789C18.7774 61.3049 18.6912 61.9324 18.9988 62.5477C19.4172 63.3475 18.6051 63.2982 31.5003 63.2982C44.3954 63.2982 43.5833 63.3475 44.0017 62.5477C44.3093 61.9324 44.2232 61.3049 43.7187 60.5789C43.4726 60.2098 43.0173 59.5577 42.722 59.1147C41.5285 57.3674 40.4703 54.7958 40.0396 52.5933C39.8797 51.7443 39.8304 50.5015 39.7812 45.7889L39.7197 40.0426H42.7589H45.7858L46.1058 39.7227C46.3641 39.4643 46.4011 39.329 46.3518 38.9598C46.2042 38.1231 46.2534 38.1354 42.5374 38.0985L39.1783 38.0616L38.0217 36.905L36.8527 35.7361H43.3988C47.0409 35.7361 50.4985 35.7976 51.1998 35.8591C52.6518 36.0068 54.9281 36.4866 56.0355 36.8804L56.7861 37.1511L56.823 38.4061L56.8599 39.6612L55.8386 39.2921C53.6977 38.5046 50.0801 37.8894 49.3172 38.1847C48.6897 38.4184 48.5174 39.3167 49.0096 39.7596C49.2065 39.9565 49.5264 40.0303 50.2647 40.1042C53.4639 40.3872 56.4293 41.3961 58.8163 43.0203C59.2593 43.3157 59.9114 43.7709 60.2806 44.017C61.0065 44.5215 61.6341 44.6076 62.2493 44.3C63.0491 43.8817 62.9999 44.6938 62.9999 31.7986C62.9999 18.9034 63.0491 19.7155 62.2493 19.2972C61.6341 18.9896 61.0065 19.0757 60.2806 19.5802C59.9114 19.8263 59.2593 20.2816 58.8163 20.5769C57.0691 21.7704 54.5098 22.8163 52.2949 23.2593C51.4336 23.4315 50.2155 23.4684 45.4905 23.5176L39.7197 23.5792L39.7812 17.8083C39.8304 13.0834 39.8673 11.8652 40.0396 11.0039C40.4826 8.78911 41.5285 6.22977 42.722 4.48252C43.0173 4.03956 43.4726 3.38742 43.7187 3.01828C44.2232 2.29231 44.3093 1.66478 44.0017 1.04955C43.6079 0.311279 43.571 0.298977 39.3259 0.298977H35.45L35.2039 0.618896C34.8717 1.03725 34.8717 1.40639 35.2039 1.81244L35.45 2.14466L38.6369 2.16927L41.8361 2.20618L41.0978 3.30128C40.6917 3.91651 40.3595 4.44561 40.3595 4.50713C40.3595 4.55635 36.3729 4.60557 31.5003 4.60557C26.6277 4.60557 22.641 4.55635 22.641 4.50713C22.641 4.44561 22.3088 3.91651 21.9027 3.30128L21.1644 2.20618L26.7138 2.14466C32.017 2.08313 32.2631 2.07083 32.4354 1.84935C32.6938 1.49252 32.6569 0.840378 32.3616 0.545067C32.1278 0.311279 31.9555 0.298977 25.9386 0.298977H19.7494L19.4172 0.581982ZM26.5661 7.76783C27.4767 10.9055 27.5628 12.0252 27.5628 19.9616V26.4461L26.3939 25.2772L25.2249 24.1083V18.7558C25.2249 11.9268 25.1019 10.7086 24.1298 7.82936L23.6623 6.45125H24.9173H26.1724L26.5661 7.76783ZM34.6994 6.53738C34.6994 6.5989 34.5641 7.09108 34.3918 7.65709C34.2319 8.2108 33.9735 9.37973 33.8135 10.241C33.5305 11.7791 33.5305 11.9637 33.5305 20.5646C33.5305 28.8209 33.5428 29.3377 33.752 29.5469C33.9612 29.7561 34.478 29.7684 42.7343 29.7684C51.3352 29.7684 51.5197 29.7684 53.0578 29.4854C53.9191 29.3254 55.0881 29.067 55.6418 28.907C56.2078 28.7348 56.7 28.5994 56.7615 28.5994C56.8107 28.5994 56.8476 30.0391 56.8476 31.7986C56.8476 33.5582 56.8107 34.9978 56.7615 34.9978C56.7 34.9978 56.2078 34.8624 55.6418 34.6902C55.0881 34.5302 53.9191 34.2718 53.0578 34.1119C51.5197 33.8289 51.3352 33.8289 42.7343 33.8289C34.478 33.8289 33.9612 33.8412 33.752 34.0503C33.5428 34.2595 33.5305 34.7763 33.5305 43.0327C33.5305 51.6335 33.5305 51.8181 33.8135 53.3562C33.9735 54.2175 34.2319 55.3864 34.3918 55.9401C34.5641 56.5061 34.6994 56.9983 34.6994 57.0475C34.6994 57.1091 33.2598 57.146 31.5003 57.146C29.7407 57.146 28.3011 57.1091 28.3011 57.0475C28.3011 56.9983 28.4364 56.5061 28.6087 55.9401C29.1747 53.996 29.4454 51.9904 29.4577 49.4925C29.47 46.9209 29.4577 46.8594 28.6456 46.724C28.2765 46.6748 28.1411 46.7117 27.895 46.9578C27.612 47.2408 27.5997 47.3392 27.5259 49.4556C27.489 50.6738 27.3659 52.1995 27.2552 52.8394C27.0583 54.0698 26.5415 56.0755 26.2708 56.7399L26.0986 57.146H24.8804H23.6623L24.1298 55.7556C25.1019 52.8886 25.2249 51.6704 25.2249 44.8414V39.4889L26.3939 38.32L27.5628 37.1511V40.4733C27.5628 43.6971 27.5751 43.7832 27.8335 44.0662C28.2026 44.46 28.8302 44.4477 29.2362 44.0416L29.5438 43.734L29.5069 38.9968C29.47 34.6533 29.4577 34.2472 29.2485 34.0503C29.0393 33.8412 28.5103 33.8289 20.2662 33.8289C11.6653 33.8289 11.4808 33.8289 9.94269 34.1119C9.08138 34.2718 7.91244 34.5302 7.35874 34.6902C6.79273 34.8624 6.30055 34.9978 6.25133 34.9978C6.18981 34.9978 6.15289 33.5582 6.15289 31.7986C6.15289 30.0391 6.18981 28.5994 6.25133 28.5994C6.30055 28.5994 6.79273 28.7348 7.35874 28.907C7.91244 29.067 9.08138 29.3254 9.94269 29.4854C11.4808 29.7684 11.6653 29.7684 20.2662 29.7684C28.5226 29.7684 29.0393 29.7561 29.2485 29.5469C29.4577 29.3377 29.47 28.8209 29.47 20.5646C29.47 11.9637 29.47 11.7791 29.187 10.241C29.027 9.37973 28.7686 8.2108 28.6087 7.65709C28.4364 7.09108 28.3011 6.5989 28.3011 6.53738C28.3011 6.48816 29.7407 6.45125 31.5003 6.45125C33.2598 6.45125 34.6994 6.48816 34.6994 6.53738ZM38.9937 7.46022C38.4769 8.87524 38.0586 10.7086 37.8986 12.2221C37.8371 12.9234 37.7756 15.8765 37.7756 18.805V24.1083L36.5943 25.2772L35.4254 26.4461L35.4746 19.0634C35.5238 12.8496 35.5608 11.5207 35.733 10.6348C35.9791 9.40434 36.4959 7.42331 36.7297 6.84499L36.902 6.45125H38.1324H39.3629L38.9937 7.46022ZM3.12598 22.2872C3.66738 22.644 4.14725 22.9393 4.20878 22.9393C4.25799 22.9393 4.30721 26.926 4.30721 31.7986C4.30721 36.6712 4.25799 40.6579 4.20878 40.6579C4.14725 40.6579 3.66738 40.9532 3.12598 41.31C2.59688 41.6668 2.08009 42.0114 2.00626 42.0606C1.88322 42.1344 1.8463 40.0426 1.8463 31.7986C1.8463 23.5546 1.88322 21.4628 2.00626 21.5366C2.08009 21.5858 2.59688 21.9304 3.12598 22.2872ZM61.1296 36.9665L61.0927 42.1344L59.9976 41.3961C59.3824 40.9901 58.8533 40.6579 58.7917 40.6579C58.7425 40.6579 58.6933 36.6712 58.6933 31.7986C58.6933 26.926 58.7425 22.9393 58.7917 22.9393C58.8533 22.9393 59.3824 22.6071 59.9976 22.2011L61.0927 21.4628L61.1296 26.6307C61.1419 29.473 61.1419 34.1242 61.1296 36.9665ZM56.7984 26.3354C56.663 26.6922 53.3654 27.5166 51.1998 27.7258C50.4862 27.7996 47.1024 27.8612 43.3988 27.8612H36.8527L38.0217 26.6922L39.1906 25.5233H44.5431C51.3475 25.5233 52.5779 25.4002 55.4326 24.4405L56.7861 23.9852L56.823 25.0803C56.8353 25.6832 56.8353 26.2493 56.7984 26.3354ZM24.9788 36.905L23.8099 38.0739H18.4574C11.6284 38.0739 10.4103 38.197 7.54331 39.169L6.15289 39.6366V38.3815V37.1265L7.48178 36.7327C10.6317 35.8222 11.2101 35.773 19.3803 35.7484L26.1478 35.7361L24.9788 36.905ZM37.7756 44.7922C37.7756 47.7207 37.8371 50.6738 37.8986 51.3751C38.0586 52.8886 38.4769 54.722 38.9937 56.137L39.3629 57.1583L38.1078 57.1214L36.8527 57.0844L36.5697 56.2231C36.1145 54.8942 35.7084 52.9132 35.5608 51.4244C35.4992 50.6738 35.4377 47.167 35.4377 43.611V37.1511L36.6066 38.32L37.7756 39.4889V44.7922ZM40.3595 59.0901C40.3595 59.1516 40.6917 59.6807 41.0978 60.2959L41.8361 61.391L36.6682 61.4279C33.8258 61.4403 29.1747 61.4403 26.3323 61.4279L21.1644 61.391L21.9027 60.2959C22.3088 59.6807 22.641 59.1516 22.641 59.0901C22.641 59.0409 26.6277 58.9916 31.5003 58.9916C36.3729 58.9916 40.3595 59.0409 40.3595 59.0901Z" fill="#C0304F"/>
</svg>
